<svg width="70" height="84" xmlns="http://www.w3.org/2000/svg"><path d="M10.384 69.985v2.072H8.626v-5.819h1.758v2.196h.5l.948-2.196h2.043l-1.414 2.792 1.678 3.027h-2.136l-1.107-2.072h-.512zm8.713 2.072h-1.93v-4.182h-1.804v-1.637h5.513v1.637h-1.779v4.182zm14.312.033h-2.954v-4.553l-.56-1.43h3.628c1.566 0 2.266.586 2.266 1.544 0 .536-.268 1.046-.853 1.275.255.076.458.204.637.357.292.269.433.652.433 1.047 0 1.276-1.287 1.76-2.597 1.76zm-1.006-2.45v1.034h1.07c.343 0 .585-.229.585-.523 0-.293-.192-.51-.585-.51h-1.07zm.012-2.103v.891h.815c.408 0 .598-.153.598-.472 0-.191-.114-.42-.636-.42h-.777zm-4.13 4.56h-1.939v-3.03l-2.283 3.03h-1.594v-5.985h1.938v3.056l2.284-3.056h1.594v5.984zm13.286-3.874V66.1h1.965v5.984H41.57v-2.135h-1.787v2.135h-1.977V66.1h1.977v2.123h1.787zM2.105 72.096H0l2.13-4.691-.573-1.292h3.086l2.654 5.983H5.192l-.324-.856H2.429l-.324.856zm1.544-4.079l-.717 1.893h1.433l-.716-1.893zm44.345-.137c1.58 0 2.789.472 2.789 2.105 0 1.621-1.21 2.106-2.789 2.106h-2.359v-5.984H47.6v1.773h.394zm.077 2.73c.471 0 .712-.267.712-.625 0-.382-.216-.625-.712-.625h-.47v1.25h.47zm3.307 1.48v-5.983h1.965v5.984h-1.965zm9.723.006h-1.94v-3.03l-2.283 3.03h-1.594v-5.984h1.939v3.056l2.284-3.056h1.594v5.984zm6.264 4.692h1.965v5.984h-1.965v-2.135h-1.799v2.135H63.59v-5.984h1.976v2.124h1.8v-2.124zm-9.715 3.057l2.285-3.057h1.593v5.984H59.59v-3.03l-2.282 3.03H55.71v-5.984h1.939v3.057zm-6.026-.934v-2.123h1.966v5.984h-1.966v-2.135h-1.786v2.135h-1.977v-5.984h1.977v2.123h1.786zm-37.72-2.122h3.087l2.654 5.983H17.54l-.324-.856h-2.44l-.324.856h-2.105l2.13-4.692-.572-1.291zm1.375 3.797h1.433l-.716-1.892-.717 1.892zm-6.193-3.797c1.582 0 3.046.55 3.046 2.16 0 1.598-1.464 2.122-3.046 2.135H8.37v1.688H6.406v-4.577l-.56-1.406h3.24zm.076 2.8c.447 0 .715-.27.715-.64 0-.383-.242-.652-.804-.652h-.704v1.292h.793zm-8.95 3.183v-5.984h4.566v1.753H2.19v4.231H.212zm37.232-5.984v4.451h.752V84h-1.76v-1.228h-3.47V84h-1.76v-2.76h.79c.409-.717.639-1.587.804-3.045l-.51-1.407h5.154zm-1.926 4.451v-2.942h-.931c-.078.959-.217 2.136-.614 2.942h1.545zm-5.628-4.45l-1.301 2.864 1.582 3.12h-2.26l-.942-2.161h-.664v2.16h-1.9v-2.16h-.702l-.931 2.16h-2.258l1.569-3.12-1.276-2.864h2.169l.79 2.238h.639v-2.238h1.9v2.238h.599l.805-2.238h2.181zm10.944 0h3.087l2.654 5.983H44.47l-.324-.856h-2.44l-.324.856h-2.105l2.13-4.692-.573-1.291zm1.375 3.797h1.433l-.717-1.892-.716 1.892zm14.285-15.701l.318-1.188c.41.211.792.347 1.38.347.588 0 .97-.136 1.382-.347l.317 1.188a2.752 2.752 0 0 1-1.699.575 2.749 2.749 0 0 1-1.698-.575zM3.901 42.305l13.148-3.519 5.189-19.34L3.9 14.539 0 0l69.237 18.533V38.31L0 56.843l3.9-14.539zm31.431-19.356l-3.164 11.792 23.619-6.32-20.455-5.472z" fill="#FFF" fill-rule="evenodd"/></svg>