<svg width="375" height="67" xmlns="http://www.w3.org/2000/svg"><g fill="#FFF" fill-rule="evenodd"><path d="M.784 26.973V.77h6.618l3.528 18.665L14.201.77h6.87v26.204h-4.765V8.188l-3.294 18.785h-4.52L4.935 8.488v18.485H.785zM24.3 20.686V7.055c0-2.097.624-3.717 1.876-4.863C27.426 1.048 29.218.477 31.55.477c2.334 0 4.122.57 5.367 1.715 1.243 1.146 1.865 2.766 1.865 4.863v13.63c0 2.099-.622 3.718-1.865 4.86-1.245 1.148-3.033 1.719-5.367 1.719-2.333 0-4.125-.571-5.375-1.718-1.252-1.143-1.876-2.762-1.876-4.86zm4.764.256c0 1.73.829 2.594 2.487 2.594 1.646 0 2.468-.864 2.468-2.594V6.798c0-1.717-.822-2.576-2.468-2.576-1.658 0-2.487.859-2.487 2.576v14.144zm12.842-.256V7.055c0-2.109.604-3.73 1.812-4.872C44.928 1.045 46.7.477 49.036.477c2.337 0 4.147.568 5.43 1.706 1.282 1.142 1.924 2.763 1.924 4.872v2.556h-4.765V6.798c0-1.717-.823-2.576-2.468-2.576-1.658 0-2.487.859-2.487 2.576v14.144c0 1.707.83 2.559 2.487 2.559 1.645 0 2.468-.852 2.468-2.559v-3.745h4.765v3.489c0 2.108-.642 3.731-1.924 4.872-1.283 1.138-3.093 1.706-5.43 1.706-2.337 0-4.109-.568-5.318-1.706-1.208-1.141-1.812-2.764-1.812-4.872zm17.565 6.287V.77h4.766V12.19L70.483.77h4.764L68.62 12.443l6.627 14.53h-4.891l-4.637-10.437-1.482 2.395v8.041H59.47zm18.367 0V.769h7.201c2.441 0 4.231.492 5.367 1.478 1.136.987 1.706 2.503 1.706 4.551v.932c0 2.681-1.03 4.439-3.093 5.283 2.372.79 3.558 2.66 3.558 5.608v2.137c0 2.026-.614 3.566-1.843 4.624-1.228 1.06-3.027 1.591-5.4 1.591h-7.496zm4.766-3.746h2.73c.833 0 1.455-.196 1.865-.584.408-.391.614-1.056.614-1.992v-2.284c0-1.194-.238-2.022-.71-2.487-.473-.464-1.26-.693-2.36-.693h-2.139v8.04zm0-11.786h1.871c.95 0 1.666-.211 2.148-.631.482-.42.723-1.132.723-2.13V7.219c0-.939-.19-1.622-.573-2.056-.384-.432-1-.649-1.852-.649h-2.317v6.927zm12.017 15.532L99.454.769h7.359l4.832 26.204h-4.763l-.83-4.752h-5.842l-.825 4.752h-4.764zm6.21-8.314h4.597l-2.305-13.19-2.293 13.19zM.784 63.249V37.045H5.55v11.237h5.42V37.046h4.764v26.203H10.97V52.03H5.55v11.22H.784zm17.692 0l4.832-26.204h7.359L35.5 63.249h-4.764l-.83-4.752h-5.841l-.826 4.752h-4.763zm6.209-8.314h4.598l-2.306-13.19-2.292 13.19zm13.112 8.314V37.045h4.765v22.459h4.13V37.044h4.764v22.459h4.128V37.044h4.765V63.25H37.797zm33.625 0V37.045H84v3.746h-7.813V63.25h-4.766zm15.81-6.287v-13.63c0-2.097.624-3.717 1.875-4.863 1.25-1.145 3.043-1.716 5.375-1.716 2.334 0 4.123.571 5.367 1.716 1.243 1.146 1.866 2.766 1.866 4.863v13.63c0 2.098-.623 3.717-1.866 4.861-1.244 1.146-3.033 1.717-5.367 1.717-2.332 0-4.125-.57-5.375-1.717-1.25-1.144-1.876-2.763-1.876-4.86zm4.763.257c0 1.73.83 2.594 2.487 2.594 1.646 0 2.47-.865 2.47-2.594V43.075c0-1.718-.824-2.576-2.47-2.576-1.658 0-2.487.858-2.487 2.576V57.22zm13.243 6.03V37.045h7.021c2.353 0 4.127.554 5.317 1.662 1.192 1.11 1.787 2.717 1.787 4.823v3.402c0 2.106-.595 3.711-1.785 4.813-1.19 1.104-2.96 1.655-5.314 1.655h-2.26v9.85h-4.766zm4.766-13.578h2.266c.79 0 1.375-.189 1.757-.565.381-.377.572-1.019.572-1.92V43.26c0-.9-.19-1.54-.572-1.91-.382-.37-.967-.558-1.757-.558h-2.266v8.88zm11.615 7.291v-13.63c0-2.097.624-3.717 1.876-4.863 1.25-1.145 3.043-1.716 5.375-1.716 2.334 0 4.123.571 5.367 1.716 1.243 1.146 1.866 2.766 1.866 4.863v13.63c0 2.098-.623 3.717-1.866 4.861-1.244 1.146-3.033 1.717-5.367 1.717-2.332 0-4.125-.57-5.375-1.717-1.252-1.144-1.876-2.763-1.876-4.86zm4.764.257c0 1.73.829 2.594 2.487 2.594 1.646 0 2.469-.865 2.469-2.594V43.075c0-1.718-.823-2.576-2.47-2.576-1.657 0-2.486.858-2.486 2.576V57.22zm12.1 9.502v-7.2h1.93c.408-.426.7-.896.875-1.412.176-.517.286-1.176.33-1.978l.868-19.086h13.553v22.476h2.074v7.2h-4.764V63.25h-10.1v3.471h-4.766zm6.54-7.2h6.25V40.792h-4.023l-.868 15.269c-.057.96-.194 1.689-.41 2.193a3.254 3.254 0 0 1-.948 1.267zM211.041 3.146h-5.512v15.717h-3.913V3.146h-5.512V0h14.937v3.146zm7.462 13.312c.598 0 1.072-.152 1.424-.455.35-.303.526-.715.526-1.235 0-.217-.026-.422-.078-.618a1.11 1.11 0 0 0-.292-.507 1.467 1.467 0 0 0-.592-.338c-.251-.082-.576-.123-.975-.123h-2.21v3.276h2.197zm-2.197-8.71v3.263h1.924c.572 0 1.036-.162 1.391-.487.355-.326.533-.748.533-1.268 0-.19-.03-.375-.091-.553a1.185 1.185 0 0 0-.319-.48 1.66 1.66 0 0 0-.597-.345c-.248-.087-.553-.13-.917-.13h-1.924zm2.028-2.288c.858 0 1.599.082 2.223.247.624.165 1.14.392 1.547.683.407.29.708.634.903 1.033.196.399.293.832.293 1.3 0 .286-.037.585-.11.897a2.68 2.68 0 0 1-.39.884c-.187.277-.44.533-.761.767-.32.234-.728.416-1.222.546.425.095.817.23 1.177.403.36.173.669.386.929.637s.464.548.611.89c.147.343.221.726.221 1.151 0 .693-.145 1.291-.435 1.794-.29.503-.679.914-1.164 1.235a5.227 5.227 0 0 1-1.67.709 8.31 8.31 0 0 1-1.957.227H212.9V5.46h5.434zm13.741-.208c1.005 0 1.92.16 2.743.481.823.32 1.53.778 2.119 1.372a6.068 6.068 0 0 1 1.365 2.164c.32.85.481 1.807.481 2.873 0 1.066-.16 2.026-.481 2.88a6.123 6.123 0 0 1-1.365 2.177 5.981 5.981 0 0 1-2.119 1.378c-.823.32-1.738.481-2.743.481-1.014 0-1.935-.16-2.762-.481a5.97 5.97 0 0 1-2.126-1.378 6.198 6.198 0 0 1-1.372-2.178c-.325-.853-.487-1.813-.487-2.879s.162-2.024.487-2.873c.326-.85.783-1.57 1.372-2.165a6.014 6.014 0 0 1 2.125-1.371c.828-.32 1.749-.481 2.763-.481zm0 11.115c1.023 0 1.781-.353 2.275-1.06.494-.706.741-1.757.741-3.152 0-1.387-.247-2.433-.741-3.14-.494-.706-1.252-1.059-2.275-1.059-1.049 0-1.82.353-2.314 1.06-.494.706-.741 1.752-.741 3.139 0 1.395.247 2.446.741 3.152.494.707 1.265 1.06 2.314 1.06zM253.317 5.46v13.403h-3.588v-7.371a8.894 8.894 0 0 1 .13-1.443 7.52 7.52 0 0 1-.611 1.105c-.017.017-.095.13-.234.338-.139.208-.32.474-.546.8a1082.704 1082.704 0 0 0-1.625 2.346c-.685.988-1.46 2.11-2.327 3.367a2.56 2.56 0 0 1-.54.585 1.49 1.49 0 0 1-.344.208.98.98 0 0 1-.39.078h-2.197V5.473h3.588v7.371c0 .208-.013.442-.039.702-.026.26-.06.516-.104.767.104-.225.208-.433.312-.624.104-.19.208-.36.312-.507a9.07 9.07 0 0 1 .227-.338l.553-.8a1082.704 1082.704 0 0 0 1.625-2.346c.685-.988 1.465-2.11 2.34-3.367.13-.208.305-.405.526-.592.222-.186.47-.279.748-.279h2.184zm-5.941-3.445c.312 0 .57-.032.773-.098a.94.94 0 0 0 .482-.331c.117-.156.199-.362.246-.618A5.43 5.43 0 0 0 248.95 0h2.119a.59.59 0 0 1 .552.312c.118.208.176.429.176.663 0 .45-.106.856-.319 1.216-.212.36-.513.665-.903.916s-.856.444-1.398.579a7.482 7.482 0 0 1-1.8.201 7.482 7.482 0 0 1-1.8-.201 4.612 4.612 0 0 1-1.398-.579 2.761 2.761 0 0 1-.904-.917 2.346 2.346 0 0 1-.318-1.215c0-.234.058-.455.175-.663a.59.59 0 0 1 .553-.312h2.119c0 .39.024.713.072.969.047.255.13.461.246.617a.94.94 0 0 0 .481.331c.204.066.462.098.774.098zm24.336 6.058h-5.655v10.79h-3.588V5.46h9.243v2.613zm7.813-2.821c1.005 0 1.92.16 2.743.481.823.32 1.53.778 2.119 1.372a6.068 6.068 0 0 1 1.365 2.164c.32.85.481 1.807.481 2.873 0 1.066-.16 2.026-.481 2.88a6.123 6.123 0 0 1-1.365 2.177 5.981 5.981 0 0 1-2.119 1.378c-.823.32-1.738.481-2.743.481-1.014 0-1.935-.16-2.762-.481a5.97 5.97 0 0 1-2.126-1.378 6.198 6.198 0 0 1-1.372-2.178c-.325-.853-.487-1.813-.487-2.879s.162-2.024.487-2.873c.326-.85.783-1.57 1.372-2.165a6.014 6.014 0 0 1 2.125-1.371c.828-.32 1.749-.481 2.763-.481zm0 11.115c1.023 0 1.781-.353 2.275-1.06.494-.706.741-1.757.741-3.152 0-1.387-.247-2.433-.741-3.14-.494-.706-1.252-1.059-2.275-1.059-1.049 0-1.82.353-2.314 1.06-.494.706-.741 1.752-.741 3.139 0 1.395.247 2.446.741 3.152.494.707 1.265 1.06 2.314 1.06zm12.558-1.04c.338.39.704.663 1.099.819.394.156.816.234 1.267.234a2.78 2.78 0 0 0 1.183-.247c.355-.165.66-.422.916-.773.256-.352.453-.8.592-1.346.139-.546.208-1.196.208-1.95 0-.745-.058-1.378-.175-1.898-.118-.52-.282-.94-.495-1.261a1.903 1.903 0 0 0-.773-.695 2.348 2.348 0 0 0-1.014-.215c-.633 0-1.163.123-1.593.37-.429.248-.834.61-1.215 1.086v5.876zm-.208-8.112c.269-.295.555-.565.858-.813.303-.247.628-.459.975-.636.347-.178.72-.317 1.118-.417.399-.1.832-.149 1.3-.149.72 0 1.38.154 1.983.462.602.307 1.12.753 1.553 1.338.433.586.771 1.303 1.014 2.152.243.85.364 1.82.364 2.912 0 1.005-.136 1.935-.41 2.788-.273.854-.66 1.593-1.163 2.217a5.38 5.38 0 0 1-1.813 1.463c-.707.35-1.493.526-2.36.526-.728 0-1.345-.108-1.852-.325a4.648 4.648 0 0 1-1.359-.884v5.343h-3.588V5.46h2.21c.45 0 .75.208.897.624l.273 1.131zm17.511-1.963c1.005 0 1.92.16 2.743.481.823.32 1.53.778 2.119 1.372a6.068 6.068 0 0 1 1.365 2.164c.32.85.481 1.807.481 2.873 0 1.066-.16 2.026-.481 2.88a6.123 6.123 0 0 1-1.365 2.177 5.981 5.981 0 0 1-2.119 1.378c-.823.32-1.738.481-2.743.481-1.014 0-1.935-.16-2.763-.481a5.97 5.97 0 0 1-2.125-1.378 6.198 6.198 0 0 1-1.371-2.178c-.326-.853-.488-1.813-.488-2.879s.162-2.024.488-2.873c.325-.85.782-1.57 1.371-2.165a6.014 6.014 0 0 1 2.125-1.371c.828-.32 1.749-.481 2.763-.481zm0 11.115c1.023 0 1.781-.353 2.275-1.06.494-.706.741-1.757.741-3.152 0-1.387-.247-2.433-.741-3.14-.494-.706-1.252-1.059-2.275-1.059-1.049 0-1.82.353-2.314 1.06-.494.706-.741 1.752-.741 3.139 0 1.395.247 2.446.741 3.152.494.707 1.265 1.06 2.314 1.06zm17.797-.013V8.151h-2.925a42.81 42.81 0 0 1-.299 2.834c-.121.85-.264 1.61-.429 2.282a14.738 14.738 0 0 1-.54 1.768c-.195.507-.4.946-.617 1.319h4.81zm5.941-.104v6.019c0 .32-.095.574-.286.76a.998.998 0 0 1-.728.28h-2.249v-4.446h-9.529v3.458c0 .251-.078.479-.234.682-.156.204-.407.306-.754.306h-2.262v-6.955h.351c.295 0 .585-.037.871-.11.286-.074.559-.234.819-.482.26-.247.505-.61.735-1.091.23-.482.44-1.125.63-1.931s.357-1.803.5-2.99c.144-1.187.258-2.617.345-4.29h9.321v10.79h2.47zm8.073-6.474h17.784v2.496h-17.784V9.776zM208.844 40.073h-4.628v10.79h-3.588v-10.79H196V37.46h12.844v2.613zm7.371 8.385c.598 0 1.072-.152 1.423-.455.352-.303.527-.715.527-1.235 0-.217-.026-.422-.078-.617a1.11 1.11 0 0 0-.292-.508 1.467 1.467 0 0 0-.592-.337c-.251-.083-.576-.124-.975-.124h-2.21v3.276h2.197zm-2.197-8.71v3.263h1.924c.572 0 1.036-.162 1.391-.488.355-.325.533-.747.533-1.267 0-.19-.03-.375-.091-.553a1.185 1.185 0 0 0-.319-.48 1.66 1.66 0 0 0-.597-.345c-.248-.087-.553-.13-.917-.13h-1.924zm2.028-2.288c.858 0 1.599.082 2.223.247.624.165 1.14.392 1.547.682.407.29.708.635.904 1.034.195.399.292.832.292 1.3 0 .286-.037.585-.11.897a2.68 2.68 0 0 1-.39.884c-.187.277-.44.533-.761.767-.32.234-.728.416-1.222.546.425.095.817.23 1.177.403.36.173.669.386.929.637s.464.548.611.89c.147.343.221.726.221 1.151 0 .693-.145 1.291-.436 1.794-.29.503-.678.914-1.163 1.235a5.227 5.227 0 0 1-1.67.709 8.31 8.31 0 0 1-1.957.227h-5.629V37.46h5.434zm13.741-.208c1.005 0 1.92.16 2.743.481.823.32 1.53.778 2.119 1.372a6.068 6.068 0 0 1 1.365 2.164c.32.85.481 1.807.481 2.873 0 1.066-.16 2.026-.481 2.88a6.123 6.123 0 0 1-1.365 2.177 5.981 5.981 0 0 1-2.119 1.378c-.823.32-1.738.481-2.743.481-1.014 0-1.935-.16-2.763-.481a5.97 5.97 0 0 1-2.125-1.378 6.198 6.198 0 0 1-1.371-2.177c-.326-.854-.488-1.814-.488-2.88 0-1.066.162-2.024.488-2.873.325-.85.782-1.57 1.371-2.164a6.014 6.014 0 0 1 2.125-1.372c.828-.32 1.749-.481 2.763-.481zm0 11.115c1.023 0 1.781-.353 2.275-1.06.494-.706.741-1.757.741-3.152 0-1.387-.247-2.433-.741-3.14-.494-.706-1.252-1.059-2.275-1.059-1.049 0-1.82.353-2.314 1.06-.494.706-.741 1.752-.741 3.139 0 1.395.247 2.446.741 3.152.494.707 1.265 1.06 2.314 1.06zm21.242-10.907v13.403h-3.588v-7.371a8.894 8.894 0 0 1 .13-1.443 7.52 7.52 0 0 1-.611 1.105c-.017.017-.095.13-.234.338-.139.208-.32.474-.546.8a1082.704 1082.704 0 0 0-1.625 2.346c-.685.988-1.46 2.11-2.327 3.367a2.56 2.56 0 0 1-.54.585 1.49 1.49 0 0 1-.344.208.98.98 0 0 1-.39.078h-2.197V37.473h3.588v7.371c0 .208-.013.442-.039.702-.026.26-.06.516-.104.767.104-.225.208-.433.312-.624.104-.19.208-.36.312-.507a9.07 9.07 0 0 1 .228-.338l.552-.8a1082.704 1082.704 0 0 0 1.625-2.346c.685-.988 1.465-2.11 2.34-3.367.13-.208.305-.405.526-.592.222-.186.47-.279.748-.279h2.184zm-5.941-3.445c.312 0 .57-.032.774-.098a.94.94 0 0 0 .48-.331c.118-.156.2-.362.247-.617a5.43 5.43 0 0 0 .072-.969h2.119a.59.59 0 0 1 .553.312c.117.208.175.429.175.663 0 .45-.106.856-.319 1.215-.212.36-.513.666-.903.917s-.856.444-1.398.578a7.482 7.482 0 0 1-1.8.202 7.482 7.482 0 0 1-1.8-.202 4.612 4.612 0 0 1-1.398-.578 2.761 2.761 0 0 1-.903-.916 2.346 2.346 0 0 1-.319-1.216c0-.234.058-.455.175-.663a.59.59 0 0 1 .553-.312h2.119c0 .39.024.713.072.968.047.256.13.462.246.618a.94.94 0 0 0 .482.331c.203.066.461.098.773.098zm23.049 4.368c.173-.269.41-.49.709-.663.299-.173.613-.26.942-.26h2.834l-2.99 4.927a3.983 3.983 0 0 1-.663.864c-.225.213-.498.38-.819.501.442.139.802.338 1.079.598.277.26.524.59.741.988l2.977 5.525h-2.47a3.9 3.9 0 0 1-.825-.078 2.31 2.31 0 0 1-.637-.234 2.007 2.007 0 0 1-.488-.377 3.13 3.13 0 0 1-.39-.52l-1.716-3.549a1.51 1.51 0 0 0-.624-.695 1.819 1.819 0 0 0-.91-.228h-1.118v5.681h-3.588V37.46h3.588v5.421h.936c.364 0 .648-.063.852-.188.203-.126.379-.328.526-.605l2.054-3.705zm12.493-1.131c1.005 0 1.92.16 2.743.481.823.32 1.53.778 2.119 1.372a6.068 6.068 0 0 1 1.365 2.164c.32.85.481 1.807.481 2.873 0 1.066-.16 2.026-.481 2.88a6.123 6.123 0 0 1-1.365 2.177 5.981 5.981 0 0 1-2.119 1.378c-.823.32-1.738.481-2.743.481-1.014 0-1.935-.16-2.762-.481a5.97 5.97 0 0 1-2.126-1.378 6.198 6.198 0 0 1-1.372-2.177c-.325-.854-.487-1.814-.487-2.88 0-1.066.162-2.024.488-2.873.325-.85.782-1.57 1.371-2.164a6.014 6.014 0 0 1 2.125-1.372c.828-.32 1.749-.481 2.763-.481zm0 11.115c1.023 0 1.781-.353 2.275-1.06.494-.706.741-1.757.741-3.152 0-1.387-.247-2.433-.741-3.14-.494-.706-1.252-1.059-2.275-1.059-1.049 0-1.82.353-2.314 1.06-.494.706-.741 1.752-.741 3.139 0 1.395.247 2.446.741 3.152.494.707 1.265 1.06 2.314 1.06zm20.865-10.907v13.403h-3.575v-5.811h-4.732v5.811H289.6V37.46h3.588v4.979h4.732V37.46h3.575zm14.625 2.613h-4.628v10.79h-3.588v-10.79h-4.628V37.46h12.844v2.613zm5.356 7.254c.338.39.704.663 1.099.819.394.156.816.234 1.267.234a2.78 2.78 0 0 0 1.183-.247c.355-.165.66-.422.917-.774.255-.35.452-.799.591-1.345.139-.546.208-1.196.208-1.95 0-.745-.058-1.378-.175-1.898-.118-.52-.282-.94-.494-1.261a1.903 1.903 0 0 0-.774-.696 2.348 2.348 0 0 0-1.014-.214c-.633 0-1.163.123-1.592.37-.43.248-.835.61-1.216 1.086v5.876zm-.208-8.112c.269-.295.555-.565.858-.813.303-.247.628-.459.975-.636.347-.178.72-.317 1.118-.416.399-.1.832-.15 1.3-.15.72 0 1.38.154 1.983.461.602.308 1.12.754 1.553 1.34.433.585.771 1.302 1.014 2.151.243.85.364 1.82.364 2.912 0 1.005-.136 1.935-.41 2.788-.273.854-.66 1.593-1.163 2.217a5.38 5.38 0 0 1-1.814 1.462c-.706.352-1.492.527-2.359.527-.728 0-1.345-.108-1.853-.325a4.648 4.648 0 0 1-1.358-.884v5.343h-3.588V37.46h2.21c.45 0 .75.208.897.624l.273 1.131zm17.511-1.963c1.005 0 1.92.16 2.743.481.823.32 1.53.778 2.119 1.372a6.068 6.068 0 0 1 1.365 2.164c.32.85.481 1.807.481 2.873 0 1.066-.16 2.026-.481 2.88a6.123 6.123 0 0 1-1.365 2.177 5.981 5.981 0 0 1-2.119 1.378c-.823.32-1.738.481-2.743.481-1.014 0-1.935-.16-2.762-.481a5.97 5.97 0 0 1-2.126-1.378 6.198 6.198 0 0 1-1.372-2.177c-.325-.854-.487-1.814-.487-2.88 0-1.066.162-2.024.488-2.873.325-.85.782-1.57 1.371-2.164a6.014 6.014 0 0 1 2.125-1.372c.828-.32 1.749-.481 2.763-.481zm0 11.115c1.023 0 1.781-.353 2.275-1.06.494-.706.741-1.757.741-3.152 0-1.387-.247-2.433-.741-3.14-.494-.706-1.252-1.059-2.275-1.059-1.049 0-1.82.353-2.314 1.06-.494.706-.741 1.752-.741 3.139 0 1.395.247 2.446.741 3.152.494.707 1.265 1.06 2.314 1.06zm21.697 2.496h-3.588V40.151h-2.899c-.113 1.63-.277 3.029-.494 4.199-.217 1.17-.477 2.16-.78 2.97-.303.81-.641 1.46-1.014 1.95s-.771.867-1.196 1.131c-.425.265-.862.44-1.313.527-.45.087-.906.13-1.365.13-.537 0-.923-.043-1.157-.13-.234-.087-.351-.212-.351-.377v-2.184h.806c.277 0 .555-.041.832-.123.277-.083.548-.254.813-.514.264-.26.513-.633.747-1.118.234-.485.45-1.131.65-1.937s.373-1.798.52-2.977a60.45 60.45 0 0 0 .351-4.238h9.438v13.403zm8.567-2.509c.641 0 1.124-.169 1.45-.507.325-.338.487-.771.487-1.3 0-.225-.037-.442-.11-.65a1.41 1.41 0 0 0-.351-.546 1.795 1.795 0 0 0-.605-.377 2.381 2.381 0 0 0-.871-.143h-2.197v3.523h2.197zm-.013-6.032c.936 0 1.731.115 2.386.344.654.23 1.185.538 1.592.924.407.385.702.831.884 1.338.182.508.273 1.043.273 1.606 0 .641-.115 1.226-.345 1.755-.23.529-.563.984-1 1.365-.438.381-.973.678-1.606.89-.633.213-1.352.319-2.158.319h-5.616V37.46h3.406v4.862h2.184z"/></g></svg>