<svg width="91" height="30" xmlns="http://www.w3.org/2000/svg"><g fill="#FEFEFE" fill-rule="evenodd"><path d="M38.592 10.976h-.058l-.398.928-.806 1.838c-.071.173-.144.29-.218.35-.075.06-.186.09-.335.09h-.534c-.162 0-.274-.03-.336-.09-.06-.06-.13-.177-.208-.35l-.602-1.298-.602-1.349h-.058V14.8c0 .094-.016.15-.049.17-.032.02-.09.03-.174.03h-.99a.355.355 0 0 1-.166-.03c-.039-.02-.058-.076-.058-.17V8.698c0-.252.047-.432.141-.538.094-.107.255-.16.481-.16h.564c.182 0 .316.035.403.105.088.07.17.191.249.364l1.06 2.437.602 1.418h.039l.661-1.558.991-2.277c.078-.18.164-.307.258-.38.095-.073.245-.109.452-.109h.477c.207 0 .363.045.466.134.104.09.156.262.156.515V14.8c0 .094-.016.15-.049.17-.033.02-.091.03-.176.03h-.968a.334.334 0 0 1-.161-.03c-.036-.02-.054-.076-.054-.17v-3.824zM45.461 11.51c0-.291-.02-.57-.062-.834a2.156 2.156 0 0 0-.228-.698c-.11-.2-.258-.361-.445-.48-.187-.12-.43-.18-.725-.18-.246 0-.46.057-.644.17a1.434 1.434 0 0 0-.46.46 2.173 2.173 0 0 0-.271.68 3.782 3.782 0 0 0-.087.823c0 .342.024.65.073.921.048.271.128.505.242.699.112.194.262.342.45.445.187.103.422.155.706.155.278 0 .51-.06.697-.18a1.3 1.3 0 0 0 .444-.474c.11-.197.19-.426.238-.688.048-.262.072-.536.072-.82M47 11.48c0 .556-.06 1.05-.18 1.483a2.928 2.928 0 0 1-.555 1.106 2.42 2.42 0 0 1-.948.693c-.382.158-.833.238-1.355.238-1 0-1.744-.304-2.23-.911-.488-.609-.732-1.468-.732-2.58 0-.542.07-1.032.209-1.47.139-.435.336-.803.595-1.104.258-.3.57-.531.938-.693A3.077 3.077 0 0 1 43.991 8c.503 0 .943.08 1.32.242.378.162.69.393.94.693.247.3.435.666.56 1.096.126.43.189.913.189 1.45M50.987 13.66c.287 0 .541-.036.763-.112.22-.073.426-.15.619-.227.084-.04.144-.047.179-.025a.3.3 0 0 1 .099.142l.304.698c.042.091.057.158.045.205-.01.045-.045.083-.098.115a2.916 2.916 0 0 1-1.018.433 5.162 5.162 0 0 1-1.054.111c-.49 0-.914-.08-1.27-.238a2.247 2.247 0 0 1-.878-.684c-.23-.298-.401-.662-.512-1.092A5.852 5.852 0 0 1 48 11.534c0-.53.07-1.013.211-1.447.14-.433.337-.805.588-1.115.25-.311.554-.55.91-.72A2.728 2.728 0 0 1 50.89 8c.304 0 .603.028.897.083.293.055.58.167.86.335.066.039.105.077.117.116.013.04-.003.114-.045.224l-.278.67c-.03.09-.061.145-.094.165-.033.019-.091.012-.175-.02a4.267 4.267 0 0 0-.6-.19 2.769 2.769 0 0 0-.62-.062c-.245 0-.462.056-.65.17a1.46 1.46 0 0 0-.475.466c-.128.197-.226.43-.292.698a3.734 3.734 0 0 0-.099.879c0 .318.026.606.076.864.051.26.138.482.261.67.123.189.282.334.48.437.196.104.443.156.735.156M57.56 11.281c.152.06.278.128.377.205.1.077.182.164.246.264.065.1.116.21.153.334.038.123.075.257.11.404l.544 2.313a.252.252 0 0 1 .004.125c-.008.05-.05.074-.127.074H57.85a.261.261 0 0 1-.096-.02c-.036-.013-.062-.052-.079-.119l-.536-2.144a1.882 1.882 0 0 0-.162-.424.725.725 0 0 0-.53-.379 2.078 2.078 0 0 0-.404-.034h-.72l.01 2.962c0 .072-.011.117-.035.133-.023.017-.064.025-.122.025h-1.018a.22.22 0 0 1-.118-.025c-.026-.016-.04-.06-.04-.133V8.18c0-.073.014-.118.04-.134a.219.219 0 0 1 .118-.025h1.027c.058 0 .099.008.122.025.024.016.029.061.017.134v2.543h.703a1.6 1.6 0 0 0 .275-.025.753.753 0 0 0 .285-.115.89.89 0 0 0 .26-.27c.078-.119.141-.282.187-.487l.395-1.686c.012-.066.037-.106.075-.12a.324.324 0 0 1 .1-.02h.982c.076 0 .12.025.128.075.009.05.007.092-.004.124l-.404 1.785c-.117.572-.365.988-.746 1.247v.05zM64.573 12.774c0-.267-.074-.484-.223-.65-.149-.167-.368-.25-.659-.25h-1.309v1.789h1.309a.96.96 0 0 0 .427-.086.76.76 0 0 0 .273-.214.785.785 0 0 0 .141-.29 1.23 1.23 0 0 0 .041-.3zm-2.191-2.128h1.236a.95.95 0 0 0 .233-.03.549.549 0 0 0 .386-.312.802.802 0 0 0 .064-.341c0-.198-.058-.353-.173-.466a.635.635 0 0 0-.464-.169h-1.282v1.318zm2.646.53c.17.074.316.171.44.294.125.123.227.26.305.41.079.15.136.31.173.484.036.173.054.343.054.51 0 .32-.056.608-.168.868a2.016 2.016 0 0 1-1.154 1.104 2.309 2.309 0 0 1-.85.154h-2.282c-.219 0-.364-.048-.437-.144-.073-.097-.109-.252-.109-.465V8.62c0-.212.036-.37.11-.469.072-.1.217-.15.436-.15h2.227c.273 0 .529.034.768.1.24.067.447.171.623.314s.313.327.413.55c.101.223.15.491.15.804 0 .28-.064.541-.194.784a1.42 1.42 0 0 1-.505.554v.07zM72 14.77c0 .08-.014.139-.04.175-.027.038-.08.055-.16.055h-2.953c-.373 0-.678-.052-.914-.159a1.501 1.501 0 0 1-.563-.42 1.463 1.463 0 0 1-.29-.589 2.856 2.856 0 0 1-.08-.67V9.849c0-.24.033-.47.1-.69.066-.22.171-.415.315-.59.142-.172.33-.31.563-.413.233-.103.519-.155.859-.155H71.7c.08 0 .132.017.155.05.024.033.035.096.035.19v.849c0 .086-.013.144-.04.174-.027.03-.076.045-.15.045h-2.535c-.259 0-.432.06-.518.18a.733.733 0 0 0-.13.44v.768h2.864c.08 0 .132.017.155.05.023.034.035.097.035.19v.78c0 .079-.012.138-.035.174-.023.036-.075.054-.155.054h-2.864v1.14c0 .233.055.39.165.473.11.084.27.125.483.125H71.8c.087 0 .141.015.164.046.024.03.036.094.036.194v.849zM77.961 14.96c-.026.026-.082.04-.169.04h-.912c-.075 0-.127-.015-.156-.045-.03-.03-.043-.085-.043-.165v-2.8h-2.352v2.8c0 .087-.014.143-.04.17-.026.026-.083.04-.17.04h-.92c-.07 0-.12-.015-.151-.045-.032-.03-.048-.085-.048-.165V8.21c0-.08.016-.135.048-.165S73.13 8 73.199 8h.92c.087 0 .144.012.17.04.026.027.04.083.04.17v2.49h2.352V8.21c0-.08.014-.135.043-.165.029-.03.081-.045.156-.045h.912c.087 0 .143.012.17.04.026.027.038.083.038.17v6.58c0 .087-.012.143-.039.17M83.461 11.51c0-.291-.02-.57-.063-.834a2.171 2.171 0 0 0-.227-.698c-.11-.2-.258-.361-.445-.48-.187-.12-.43-.18-.726-.18-.245 0-.46.057-.643.17a1.428 1.428 0 0 0-.46.46 2.143 2.143 0 0 0-.271.68 3.782 3.782 0 0 0-.087.823c0 .342.024.65.072.921.048.271.129.505.243.699.112.194.262.342.45.445.187.103.422.155.706.155.277 0 .51-.06.697-.18.187-.118.334-.277.444-.474.11-.197.19-.426.238-.688.048-.262.072-.536.072-.82M85 11.48c0 .556-.06 1.05-.18 1.483-.119.433-.304.802-.555 1.106a2.417 2.417 0 0 1-.948.693c-.382.158-.833.238-1.355.238-1.001 0-1.744-.304-2.232-.911-.486-.609-.73-1.468-.73-2.58 0-.542.07-1.032.209-1.47.138-.435.336-.803.594-1.104.258-.3.571-.531.94-.693A3.077 3.077 0 0 1 81.99 8c.503 0 .942.08 1.32.242.378.162.69.393.939.693.248.3.436.666.56 1.096.127.43.19.913.19 1.45M89.56 11.281c.152.06.278.128.377.205.1.077.182.164.246.264.065.1.116.21.154.334.037.123.074.257.109.404l.544 2.313a.252.252 0 0 1 .004.125c-.008.05-.05.074-.127.074H89.85a.261.261 0 0 1-.096-.02c-.036-.013-.062-.052-.079-.119l-.536-2.144a1.882 1.882 0 0 0-.162-.424.725.725 0 0 0-.53-.379 2.076 2.076 0 0 0-.403-.034h-.72l.01 2.962c0 .072-.012.117-.036.133-.023.017-.064.025-.122.025h-1.018a.22.22 0 0 1-.118-.025c-.026-.016-.04-.06-.04-.133V8.18c0-.073.014-.118.04-.134a.219.219 0 0 1 .118-.025h1.027c.058 0 .099.008.122.025.024.016.029.061.017.134v2.543h.703a1.6 1.6 0 0 0 .275-.025.753.753 0 0 0 .285-.115.89.89 0 0 0 .26-.27c.078-.119.141-.282.187-.487l.395-1.686c.012-.066.037-.106.075-.12a.324.324 0 0 1 .1-.02h.983c.075 0 .118.025.127.075.009.05.007.092-.004.124l-.404 1.785c-.117.572-.365.988-.746 1.247v.05zM49.065 22.504c0 .158-.03.276-.088.352-.06.078-.16.116-.304.116h-4.666c-.144 0-.244-.038-.303-.116-.06-.076-.088-.194-.088-.352v-4.3c0-.089.044-.133.132-.133h.709c.058 0 .095.01.11.028.014.019.022.053.022.104v3.846h1.283v-3.846c0-.088.045-.132.134-.132h.688c.059 0 .097.01.114.028.016.019.025.053.025.104v3.846h1.27v-3.846c0-.05.008-.085.023-.104.015-.019.052-.028.11-.028h.703c.084 0 .126.044.126.132v4.3zm-6.402-1.087c-.08.324-.201.6-.363.832-.163.23-.37.408-.62.535-.25.125-.547.188-.888.188-.25 0-.5-.027-.756-.08a2.047 2.047 0 0 1-.724-.311.143.143 0 0 1-.069-.084c-.009-.033.002-.082.032-.147l.215-.504c.02-.05.044-.084.07-.101.025-.016.067-.01.125.017.14.057.29.112.45.165.16.053.341.08.543.08a1.1 1.1 0 0 0 .462-.087.901.901 0 0 0 .32-.245 1.12 1.12 0 0 0 .198-.385 2.5 2.5 0 0 0 .095-.506h-1.486c-.046 0-.078-.008-.094-.024-.018-.018-.026-.05-.026-.102v-.594c0-.057.008-.094.026-.112.016-.019.048-.028.094-.028h1.473c-.033-.336-.136-.594-.307-.773-.17-.18-.4-.27-.692-.27-.16 0-.308.016-.442.047a2.8 2.8 0 0 0-.43.136c-.06.023-.101.027-.127.013-.025-.013-.048-.053-.07-.118l-.17-.482c-.029-.08-.04-.133-.035-.161.007-.028.035-.057.085-.084.199-.112.408-.19.627-.235.22-.044.436-.066.651-.066.623 0 1.105.207 1.444.62.34.411.51 1.007.51 1.785 0 .397-.041.757-.12 1.08zm-4.17 1.415c0 .065-.01.105-.031.12-.022.014-.06.02-.115.02h-.63a.2.2 0 0 1-.105-.02c-.024-.015-.036-.055-.036-.12v-2.677h-.037l-.26.65-.524 1.286a.638.638 0 0 1-.142.245c-.05.042-.122.063-.219.063h-.347c-.106 0-.178-.021-.219-.063a.88.88 0 0 1-.136-.245l-.392-.909-.391-.944h-.038v2.594c0 .065-.01.105-.032.12-.02.014-.06.02-.114.02h-.645a.217.217 0 0 1-.107-.02c-.025-.015-.038-.055-.038-.12V18.56c0-.177.03-.303.092-.377.061-.074.166-.112.313-.112h.368c.118 0 .206.024.262.073a.685.685 0 0 1 .162.256l.69 1.706.392.992h.026l.43-1.09.645-1.595a.677.677 0 0 1 .168-.265c.062-.051.16-.077.295-.077h.31c.135 0 .236.031.304.095.068.062.1.182.1.36v4.306zM33 24h17v-7H33v7zM11.5 19.688A4.989 4.989 0 0 1 9 19l2.5 3 2.5-3a4.989 4.989 0 0 1-2.5.688"/><path d="M2.196 4.675l2.788 2.322a10.98 10.98 0 0 0 14.03 0l2.79-2.322V27.82h-9.747c-5.437 0-9.86-4.387-9.86-9.78V4.674zm15.407.654a8.773 8.773 0 0 1-11.206 0L0 0v18.04C0 24.635 5.408 30 12.057 30H24V0l-6.397 5.329z"/><path d="M17 13.22c-.981 0-1.78.799-1.78 1.78s.799 1.78 1.78 1.78 1.78-.799 1.78-1.78-.799-1.78-1.78-1.78M17 19c-2.206 0-4-1.794-4-4s1.794-4 4-4 4 1.794 4 4-1.794 4-4 4M7 13.22c-.981 0-1.78.799-1.78 1.78s.799 1.78 1.78 1.78 1.78-.799 1.78-1.78-.799-1.78-1.78-1.78M7 19c-2.206 0-4-1.794-4-4s1.794-4 4-4 4 1.794 4 4-1.794 4-4 4"/></g></svg>