<svg width="148" height="44" xmlns="http://www.w3.org/2000/svg" xmlns:xlink="http://www.w3.org/1999/xlink"><defs><path id="a" d="M.707.56h9.08v10.067H.708z"/><path id="c" d="M0 .642h38.023v42.422H0z"/></defs><g fill="none" fill-rule="evenodd"><path d="M56.429 16.077c0-.374-.12-.684-.354-.932-.236-.249-.58-.373-1.033-.373h-2.108v2.667h2.095c.27 0 .495-.045.677-.137.184-.09.328-.202.433-.336.107-.134.181-.282.225-.445.043-.162.065-.31.065-.444zm-4.823 3.27c-.357 0-.59-.068-.701-.202-.112-.134-.165-.354-.165-.659v-8.202c0-.335.067-.582.201-.74.134-.157.376-.236.722-.236h5.632c.105 0 .174.022.21.065.033.043.05.126.05.25V10.9c0 .105-.017.176-.05.215-.036.037-.105.057-.21.057h-4.36v1.778h2.107c.568 0 1.054.058 1.46.172.403.115.742.266 1.016.452.275.186.492.397.65.632.16.233.277.47.354.709.078.239.128.472.152.695.024.225.036.419.036.58a2.964 2.964 0 0 1-1.004 2.26 3.428 3.428 0 0 1-1.097.66 3.848 3.848 0 0 1-1.365.237h-3.638zM66.667 12.635l-1.285 2.151-2.44 3.93a3.124 3.124 0 0 1-.233.321.913.913 0 0 1-.215.194.694.694 0 0 1-.268.094c-.101.014-.224.02-.368.02h-.578c-.375 0-.626-.087-.75-.264-.126-.176-.188-.418-.188-.724V9.565c0-.18.101-.271.303-.271h1.546c.134 0 .217.019.251.057.034.04.052.11.052.214v6.454h.086l1.227-2.008 2.498-4.071c.087-.135.165-.245.231-.33a.834.834 0 0 1 .217-.202.664.664 0 0 1 .26-.093c.096-.014.217-.021.362-.021h.59c.357 0 .603.074.738.222.135.149.201.408.201.781v8.777c0 .183-.1.271-.302.271h-1.545c-.135 0-.222-.017-.261-.056-.038-.038-.057-.11-.057-.215v-6.439h-.072zM76.76 16.077c0-.374-.118-.684-.354-.932-.235-.249-.58-.373-1.032-.373h-2.109v2.667h2.095c.27 0 .496-.045.677-.137a1.19 1.19 0 0 0 .658-.78c.044-.163.065-.312.065-.445zm-4.822 3.27c-.357 0-.591-.068-.701-.202-.113-.134-.166-.354-.166-.659v-8.202c0-.335.067-.582.201-.74.135-.157.376-.236.723-.236h5.631c.107 0 .174.022.21.065.033.043.05.126.05.25V10.9c0 .105-.017.176-.05.215-.036.037-.103.057-.21.057h-4.36v1.778h2.108c.568 0 1.053.058 1.458.172.405.115.744.266 1.018.452.275.186.492.397.65.632.16.233.276.47.354.709.077.239.127.472.152.695.023.225.036.419.036.58a2.964 2.964 0 0 1-1.005 2.26 3.428 3.428 0 0 1-1.097.66 3.846 3.846 0 0 1-1.364.237h-3.638zM81.958 10.268c.02-.334.092-.578.216-.73.127-.153.361-.23.707-.23h5.185c.347 0 .587.079.723.237.134.157.202.398.202.723v8.82c0 .105-.018.174-.05.208-.035.034-.119.05-.254.05h-1.603c-.105 0-.18-.016-.223-.05-.044-.034-.066-.103-.066-.208v-7.887H83.98l-.058 1.003a137.184 137.184 0 0 1-.231 2.826c-.077.823-.218 1.537-.419 2.144a3.866 3.866 0 0 1-.903 1.52c-.4.406-.955.724-1.666.953a.46.46 0 0 1-.268.03c-.072-.02-.132-.087-.182-.201l-.49-1.076a.364.364 0 0 1-.028-.244c.018-.077.08-.139.187-.187.376-.181.677-.396.902-.645.226-.249.405-.578.535-.99.13-.41.226-.929.29-1.555.061-.626.12-1.403.18-2.331l.13-2.18zM97.496 12.635l-1.286 2.151-2.44 3.93a3.135 3.135 0 0 1-.231.321.917.917 0 0 1-.216.194.679.679 0 0 1-.268.094 2.74 2.74 0 0 1-.368.02h-.578c-.375 0-.625-.087-.75-.264-.125-.176-.188-.418-.188-.724V9.565c0-.18.101-.271.303-.271h1.546c.135 0 .218.019.253.057.032.04.05.11.05.214v6.454h.085l1.229-2.008 2.498-4.071c.086-.135.163-.245.23-.33a.865.865 0 0 1 .217-.202.675.675 0 0 1 .26-.093c.096-.014.217-.021.36-.021h.593c.356 0 .602.074.736.222.136.149.202.408.202.781v8.777c0 .183-.1.271-.302.271h-1.546c-.134 0-.22-.017-.26-.056-.038-.038-.057-.11-.057-.215v-6.439h-.072zM108.186 14.341c0-.43-.031-.84-.095-1.233a3.175 3.175 0 0 0-.338-1.032 1.956 1.956 0 0 0-.665-.71c-.28-.178-.64-.266-1.083-.266-.366 0-.686.085-.96.252a2.09 2.09 0 0 0-.686.68 3.142 3.142 0 0 0-.405 1.005c-.086.381-.13.789-.13 1.22 0 .506.037.96.108 1.36.073.403.193.747.361 1.034.17.286.392.506.672.659.28.154.63.23 1.053.23.416 0 .761-.089 1.042-.266.28-.177.5-.41.663-.703.165-.29.283-.63.355-1.018.072-.387.108-.79.108-1.212m2.297-.043c0 .823-.09 1.554-.269 2.195-.179.64-.456 1.185-.83 1.634-.375.45-.848.791-1.414 1.025-.57.235-1.243.352-2.023.352-1.492 0-2.601-.449-3.329-1.349-.727-.897-1.09-2.169-1.09-3.814 0-.803.104-1.527.312-2.172.205-.645.501-1.19.887-1.635a3.867 3.867 0 0 1 1.4-1.025c.55-.239 1.171-.359 1.864-.359.75 0 1.408.12 1.97.359.563.239 1.03.58 1.401 1.025.372.445.65.985.837 1.62.189.636.284 1.351.284 2.144M118.785 11.172h-2.613v7.873c0 .124-.022.205-.066.244-.042.038-.137.057-.282.057h-1.544c-.116 0-.2-.022-.253-.064-.053-.043-.08-.122-.08-.237v-7.873h-2.555c-.183 0-.275-.095-.275-.287V9.61c0-.125.02-.206.058-.245.038-.038.11-.057.217-.057h7.393c.115 0 .193.02.232.057.037.039.057.12.057.245v1.275c0 .192-.096.287-.289.287M127.408 19.267c-.038.053-.114.079-.23.079h-4.275c-.539 0-.98-.076-1.32-.23a2.163 2.163 0 0 1-.816-.601 2.125 2.125 0 0 1-.42-.847 4.07 4.07 0 0 1-.115-.96v-4.762c0-.343.048-.674.144-.99.096-.315.248-.596.455-.845.207-.25.478-.447.816-.596.336-.148.752-.222 1.242-.222h4.144c.116 0 .19.024.224.071.033.05.05.139.05.274v1.219c0 .124-.02.208-.057.25-.039.043-.111.065-.217.065h-3.668c-.375 0-.626.086-.751.259a1.047 1.047 0 0 0-.187.63v1.104h4.144c.115 0 .19.025.224.071.034.05.05.14.05.274v1.119c0 .114-.016.198-.05.25-.033.053-.109.079-.224.079h-4.144v1.635c0 .335.08.562.239.68.158.12.39.18.7.18h3.811c.126 0 .206.021.239.065.034.044.05.136.05.28v1.218c0 .115-.02.199-.058.251M135.195 13.997c.252.086.457.185.62.294.165.11.3.237.405.38.107.143.19.304.253.481s.122.371.18.58l.895 3.328a.288.288 0 0 1 .008.179c-.014.072-.083.107-.21.107h-1.674c-.048 0-.101-.009-.159-.029-.06-.018-.1-.075-.13-.17l-.88-3.085a2.536 2.536 0 0 0-.268-.61 1.133 1.133 0 0 0-.369-.365 1.495 1.495 0 0 0-.504-.18 4.005 4.005 0 0 0-.665-.049h-1.183l.014 4.26c0 .105-.02.169-.058.193-.04.024-.105.035-.203.035h-1.674a.402.402 0 0 1-.194-.035c-.043-.024-.067-.088-.067-.194V9.538c0-.106.024-.17.067-.194a.402.402 0 0 1 .194-.035h1.69c.095 0 .163.011.201.035.039.024.048.088.03.194v3.656h1.154c.146 0 .297-.011.455-.036a1.362 1.362 0 0 0 .896-.551c.13-.172.232-.407.31-.703l.65-2.424c.019-.095.06-.153.122-.171a.563.563 0 0 1 .166-.03h1.618c.124 0 .194.036.21.108a.328.328 0 0 1-.008.18l-.665 2.566c-.19.822-.601 1.42-1.227 1.792v.072z" fill="#FEFEFE"/><g transform="translate(137.63 8.72)"><mask id="b" fill="#fff"><use xlink:href="#a"/></mask><path d="M4.1 6.77h2.266l-.548-1.83-.535-2.057h-.087L4.65 4.941l-.55 1.828zm2.786 1.764H3.579l-.563 1.82a.426.426 0 0 1-.123.209c-.052.042-.147.064-.28.064H.923c-.107 0-.172-.029-.196-.086a.307.307 0 0 1-.007-.201l3.003-8.991c.047-.163.104-.295.166-.395a.816.816 0 0 1 .218-.236.79.79 0 0 1 .287-.123A1.87 1.87 0 0 1 4.778.56h.866c.163 0 .304.007.419.021a.685.685 0 0 1 .527.351c.063.106.121.245.18.417l3.004 8.99a.316.316 0 0 1 0 .188c-.02.067-.08.1-.19.1H7.869a.845.845 0 0 1-.267-.036c-.072-.024-.123-.088-.152-.194l-.563-1.863z" fill="#FEFEFE" mask="url(#b)"/></g><g transform="translate(0 .294)"><mask id="d" fill="#fff"><use xlink:href="#c"/></mask><path d="M23.79 21.066h3.135c0-6.078 4.977-11.022 11.098-11.022V6.932h-.001c-7.849 0-14.232 6.34-14.232 14.134zm14.232-7.846a7.907 7.907 0 0 0-7.543 5.514 7.784 7.784 0 0 0-.357 2.332h3.135c0-.979.299-1.89.815-2.645a4.773 4.773 0 0 1 3.951-2.089V13.22h-.001zM17.433 38.826l-5.217-2.505-9.081-4.36V16.02c10.502-.052 14.098 4.752 14.298 5.033v17.773zM3.135 10.195c4.746.53 8.16 2.41 10.553 4.541-2.569-1.06-6.025-1.874-10.553-1.856v-2.685zm0-6.143c.455.082.904.187 1.347.304l.188.048c.424.118.84.253 1.25.401.084.028.167.06.25.09A17.507 17.507 0 0 1 8.705 6.09c.08.046.157.095.236.144.364.215.722.439 1.067.68.05.035.095.074.146.109.538.385 1.048.806 1.54 1.249.21.19.43.375.632.576.172.173.33.358.496.536.22.238.438.475.644.724.27.327.523.669.768 1.017-2.726-2.001-6.346-3.634-11.1-4.093v-2.98zM38.022.642c-2.773 0-5.418.556-7.835 1.55l-.03.006c-.14.057-.271.126-.408.186-.286.127-.574.252-.853.39-.175.086-.343.181-.515.272-.268.141-.536.284-.8.436-.174.104-.345.217-.518.325-.246.155-.493.31-.733.474-.178.123-.349.255-.524.383-.223.164-.446.327-.662.499-.18.144-.354.298-.53.448-.198.17-.397.337-.588.514-.183.169-.355.345-.53.52-.173.172-.35.34-.516.518-.18.192-.35.394-.522.592-.15.172-.303.342-.447.52-.176.216-.34.44-.507.663-.13.172-.26.34-.382.515-.168.24-.324.488-.481.735-.108.17-.22.336-.323.508-.157.262-.298.531-.443.8-.09.168-.186.333-.27.504-.14.28-.27.568-.395.854-.06.134-.13.265-.187.4h-.025a20.502 20.502 0 0 0-5.36-7.447v-.022c-.162-.143-.339-.27-.507-.408a22.442 22.442 0 0 0-.594-.48 22.276 22.276 0 0 0-1.377-.964c-.235-.151-.47-.303-.711-.445-.255-.15-.516-.288-.779-.426-.229-.123-.453-.25-.688-.364a20.337 20.337 0 0 0-1.433-.63c-.229-.088-.463-.162-.696-.244a19.37 19.37 0 0 0-.914-.307c-.25-.075-.506-.14-.76-.206A21.323 21.323 0 0 0 3.49.947 21.97 21.97 0 0 0 2.457.802C2.227.776 2 .743 1.77.723A20.951 20.951 0 0 0 .138.648C.099.647.062.642.026.642v.001L0 .642v33.283H.12l-.028.057 11.379 5.461 7.541 3.62 18.92-9.081-.037-.077.129.02v-3.458l-19.012 9.116 1.578-.756V21.055h.002c.006-9.54 7.823-17.3 17.432-17.3V.642h-.001z" fill="#FEFEFE" mask="url(#d)"/></g><path d="M75.986 32.046c0 .223-.048.39-.139.498-.093.109-.253.163-.477.163h-7.333c-.226 0-.384-.054-.477-.163-.092-.108-.139-.275-.139-.498v-6.068c0-.124.07-.187.21-.187h1.112c.092 0 .15.013.174.04.022.026.034.075.034.147v5.427h2.018v-5.427c0-.124.07-.187.208-.187h1.083c.092 0 .152.013.178.04.027.026.039.075.039.147v5.427h1.997v-5.427c0-.072.012-.12.036-.148.023-.026.081-.04.173-.04h1.103c.134 0 .2.064.2.188v6.068zm-10.062-1.534a3.31 3.31 0 0 1-.57 1.174 2.57 2.57 0 0 1-.974.755c-.394.177-.86.266-1.396.266-.391 0-.786-.038-1.188-.113a3.389 3.389 0 0 1-1.137-.44c-.059-.032-.096-.071-.109-.118-.014-.045.003-.115.05-.206l.338-.711c.032-.072.068-.12.109-.143.039-.023.107-.016.198.024.22.08.454.157.706.233.253.076.537.112.855.112a1.9 1.9 0 0 0 .725-.123c.199-.082.366-.197.5-.345.137-.148.24-.329.313-.543a3.21 3.21 0 0 0 .15-.714H62.16c-.071 0-.122-.012-.148-.035-.028-.023-.04-.071-.04-.144v-.838c0-.08.012-.131.04-.158.026-.026.077-.04.148-.04h2.315c-.052-.473-.213-.837-.482-1.09-.268-.252-.63-.38-1.089-.38-.25 0-.483.021-.693.065a4.738 4.738 0 0 0-.676.192c-.094.033-.159.039-.2.02-.038-.02-.075-.075-.108-.168l-.269-.68c-.045-.113-.065-.187-.054-.228.01-.038.054-.08.134-.118.31-.158.639-.268.984-.331a5.695 5.695 0 0 1 1.023-.094c.98 0 1.736.292 2.27.875.533.582.8 1.422.8 2.52 0 .559-.063 1.067-.19 1.524zm-6.552 1.998c0 .092-.017.148-.051.167-.033.02-.092.03-.178.03h-.992a.347.347 0 0 1-.165-.03c-.037-.02-.055-.075-.055-.167V28.73h-.06l-.406.918-.824 1.815c-.075.171-.149.286-.224.345-.078.06-.192.09-.344.09h-.545c-.167 0-.28-.03-.344-.09-.064-.059-.133-.174-.214-.345l-.615-1.282-.617-1.332h-.058v3.66c0 .092-.018.148-.05.167-.033.02-.093.03-.18.03h-1.012a.372.372 0 0 1-.17-.03c-.038-.02-.06-.075-.06-.167v-6.028c0-.25.049-.427.146-.533.095-.105.259-.158.49-.158h.579c.186 0 .322.034.413.104.09.069.174.189.252.36l1.086 2.407.616 1.4h.04l.678-1.538 1.012-2.25c.08-.176.17-.302.264-.375.097-.072.252-.108.464-.108h.487c.213 0 .372.045.477.134.107.088.16.257.16.508v6.077zm-8.633 1.647h26.716v-9.876H50.74v9.876z" fill="#FEFEFE"/></g></svg>