<svg width="166" height="60" xmlns="http://www.w3.org/2000/svg" xmlns:xlink="http://www.w3.org/1999/xlink"><defs><path id="a" d="M0 59.794h165.536V0H0z"/></defs><g fill="none" fill-rule="evenodd"><path d="M48.756 4.65V3.577c0-.615-.503-1.117-1.124-1.117H30.254c-.62 0-1.124.502-1.124 1.118V4.65a1.12 1.12 0 0 0 1.124 1.117h5.9c.62 0 1.125.502 1.125 1.119v17.88c0 .617.504 1.117 1.125 1.117H42.052c.622 0 1.125-.5 1.125-1.117v-9.89c0-.299-.122-.586-.337-.797l-1.897-1.855a1.118 1.118 0 0 1-.336-.797V6.886c0-.617.503-1.12 1.125-1.12h5.9a1.12 1.12 0 0 0 1.124-1.116" fill="#FEFEFE"/><path d="M36.153 18.592h-5.089v-5.734c0-.63-.514-1.14-1.148-1.14-.276 0-.544.098-.752.28l-3.354 2.9c-.251.216-.395.53-.395.86v8.986c0 .63.513 1.139 1.147 1.139h3.354c.634 0 1.148-.51 1.148-1.14v-2.887h5.09v-3.264z" fill="#FEFEFE"/><mask id="b" fill="#fff"><use xlink:href="#a"/></mask><path fill="#FEFEFE" mask="url(#b)" d="M44.293 25.875h2.22v-2.207h-2.22zM47.169 25.875h2.219v-2.207h-2.22zM44.293 23.017h2.22V20.81h-2.22z"/><path fill="#FEFEFE" mask="url(#b)" d="M52.928 16.371l-3.583-3.42 3.628 26.655-19.551-4.813 1.784-7.191.013-.056-.768-3.22-2.2 2.47-1.827 7.261-23.8-5.859L29.678 8.894h-4.795L0 29.732l56.643 13.941zM77.419 27.512c-.045.038-.138.058-.282.058h-1.519c-.124 0-.211-.023-.26-.066-.048-.043-.072-.122-.072-.236v-4.024h-3.918v4.024c0 .124-.02.206-.065.244-.043.038-.137.058-.282.058h-1.532c-.116 0-.2-.023-.252-.066-.053-.043-.08-.122-.08-.236v-9.456c0-.114.027-.194.08-.237.051-.043.136-.064.252-.064h1.532c.145 0 .239.018.282.057.044.039.065.12.065.244v3.579h3.918v-3.579c0-.114.024-.194.073-.237.048-.043.135-.064.26-.064h1.518c.144 0 .237.018.282.057.043.039.065.12.065.244v9.456c0 .124-.022.206-.065.244M86.027 22.554c0-.43-.031-.842-.093-1.236a3.152 3.152 0 0 0-.34-1.034 1.938 1.938 0 0 0-.666-.711c-.279-.177-.64-.267-1.084-.267-.366 0-.686.085-.96.253a2.08 2.08 0 0 0-.687.682 3.151 3.151 0 0 0-.406 1.005c-.087.384-.13.79-.13 1.222 0 .508.037.963.108 1.365.073.402.194.747.363 1.035.168.287.392.508.671.66.28.154.631.23 1.056.23.415 0 .76-.088 1.04-.265.281-.177.502-.412.666-.705.163-.291.282-.632.354-1.02.072-.387.108-.792.108-1.214m2.3-.043c0 .823-.09 1.557-.268 2.198-.18.642-.456 1.188-.832 1.638a3.59 3.59 0 0 1-1.417 1.029c-.568.234-1.243.351-2.023.351-1.494 0-2.605-.45-3.332-1.35-.729-.9-1.092-2.175-1.092-3.823 0-.804.103-1.53.31-2.177.208-.646.504-1.192.89-1.638a3.896 3.896 0 0 1 1.402-1.028c.55-.238 1.171-.358 1.865-.358.751 0 1.41.12 1.972.358.565.24 1.032.583 1.404 1.028.37.446.65.986.837 1.624.188.637.283 1.352.283 2.148M95.887 24.365c0-.383-.119-.695-.355-.934-.235-.239-.584-.359-1.047-.359h-2.082v2.57h2.082c.27 0 .496-.04.68-.121.183-.082.326-.183.433-.309.105-.124.182-.263.223-.417.043-.152.066-.296.066-.43zm-3.484-3.062h1.966c.116 0 .238-.013.368-.043a.968.968 0 0 0 .355-.15.777.777 0 0 0 .26-.297c.068-.13.101-.295.101-.493 0-.284-.091-.508-.275-.67-.182-.162-.428-.243-.737-.243h-2.038v1.896zm4.207.762c.27.106.503.248.701.425.197.176.359.372.483.589.126.215.218.447.276.697.057.249.086.492.086.731 0 .46-.09.878-.267 1.25-.179.375-.424.697-.737.964a3.45 3.45 0 0 1-1.099.625c-.419.15-.87.223-1.352.223h-3.628c-.347 0-.578-.069-.694-.21-.116-.137-.174-.36-.174-.668v-8.304c0-.306.058-.531.174-.675.116-.144.347-.216.694-.216h3.542c.433 0 .84.049 1.221.144.38.096.711.246.99.452.28.205.498.47.658.79.16.322.239.706.239 1.157 0 .403-.104.78-.31 1.13-.208.349-.476.614-.803.795v.101zM111.167 27.296c0 .105-.017.177-.05.215-.035.04-.12.058-.252.058h-1.605c-.204 0-.304-.092-.304-.273v-9.512c0-.183.1-.273.304-.273h1.605c.133 0 .217.02.251.057.034.038.051.11.051.216v9.512zm-5.42-3.002c0-.383-.119-.7-.355-.95-.236-.248-.585-.373-1.048-.373h-2.11v2.672h2.096c.27 0 .495-.045.678-.135.184-.092.331-.204.443-.34.11-.132.186-.278.23-.437.043-.158.066-.305.066-.437zm-4.843 3.275c-.348 0-.579-.07-.695-.209-.115-.138-.174-.36-.174-.668V17.77c0-.183.097-.273.29-.273h1.605c.135 0 .219.018.253.056.033.038.05.112.05.217v3.375h2.125c.858 0 1.533.122 2.024.367.492.245.858.54 1.098.884.242.346.392.7.45 1.063.057.365.087.667.087.906a3.055 3.055 0 0 1-1.006 2.291 3.52 3.52 0 0 1-1.1.669 3.689 3.689 0 0 1-1.35.244h-3.657zM116.704 24.12l-1.748 3.118a.792.792 0 0 1-.247.266c-.077.043-.207.066-.39.066h-1.778c-.087 0-.142-.031-.166-.094a.213.213 0 0 1 .022-.194l3.08-4.944-2.82-4.568c-.049-.058-.058-.117-.03-.181.03-.061.097-.092.203-.092h1.692c.193 0 .325.019.397.057.073.039.146.125.224.258l1.59 2.802 1.576-2.802c.077-.133.152-.22.224-.258.073-.038.205-.057.397-.057h1.663c.106 0 .17.031.195.092.024.064.013.127-.036.194l-2.79 4.541 3.08 4.958a.202.202 0 0 1 .014.194c-.03.063-.082.094-.16.094h-1.806c-.174 0-.302-.023-.384-.066-.081-.043-.16-.13-.238-.266l-1.764-3.118zM76.871 36.73h-2.617v7.888c0 .125-.022.207-.064.244-.044.04-.138.057-.282.057H72.36c-.115 0-.2-.02-.252-.064-.054-.044-.08-.122-.08-.237V36.73h-2.56c-.182 0-.274-.095-.274-.288v-1.278c0-.125.02-.206.058-.245.039-.038.111-.056.217-.056h7.402c.116 0 .192.017.231.056.039.04.058.12.058.245v1.278c0 .193-.097.288-.289.288M85.588 44.84c-.038.053-.116.08-.231.08h-4.28c-.539 0-.98-.076-1.322-.23a2.186 2.186 0 0 1-.817-.603 2.156 2.156 0 0 1-.42-.848 4.08 4.08 0 0 1-.114-.963v-4.77c0-.346.047-.676.144-.992.095-.317.247-.6.455-.848.207-.249.48-.448.817-.597.337-.147.751-.222 1.243-.222h4.149c.117 0 .19.023.224.071.033.049.051.139.051.274v1.222c0 .124-.02.207-.057.25-.039.044-.112.065-.218.065H81.54c-.375 0-.626.085-.752.258a1.049 1.049 0 0 0-.187.633v1.106h4.149c.116 0 .19.025.224.073.033.046.05.138.05.272v1.122a.488.488 0 0 1-.05.25c-.034.053-.108.08-.224.08H80.6v1.637c0 .337.08.564.24.684.159.12.392.179.7.179h3.817c.125 0 .205.021.238.065.034.044.052.136.052.28v1.22c0 .116-.021.2-.059.253M90.965 41.47l-1.748 3.119c-.088.134-.17.223-.247.266-.077.043-.207.065-.39.065h-1.779c-.086 0-.141-.031-.166-.094a.216.216 0 0 1 .023-.194l3.078-4.943-2.819-4.568c-.049-.06-.057-.117-.029-.18.03-.063.097-.093.203-.093h1.692c.192 0 .325.018.397.056.073.039.147.124.224.26l1.59 2.8 1.576-2.8c.077-.136.152-.221.224-.26.072-.038.205-.056.397-.056h1.663c.106 0 .17.03.195.092.024.064.013.127-.036.194l-2.79 4.54 3.08 4.958c.037.067.042.133.014.194-.029.063-.082.094-.16.094h-1.806c-.174 0-.301-.022-.383-.065-.083-.043-.162-.132-.239-.266l-1.764-3.118zM104.792 44.862c-.043.038-.136.058-.28.058h-1.52c-.125 0-.211-.022-.26-.065-.048-.044-.072-.123-.072-.237v-4.024h-3.917v4.024c0 .124-.022.206-.066.244-.043.038-.137.058-.282.058h-1.532c-.115 0-.2-.022-.253-.065-.052-.044-.079-.123-.079-.237v-9.455c0-.115.027-.194.08-.238.052-.042.137-.063.252-.063h1.532c.145 0 .24.02.282.057.044.04.066.12.066.244v3.578h3.917v-3.578c0-.115.024-.194.073-.238.048-.042.134-.063.26-.063h1.518c.145 0 .238.02.281.057.045.04.066.12.066.244v9.455c0 .124-.021.206-.066.244M113.484 39.905c0-.43-.03-.842-.094-1.235a3.21 3.21 0 0 0-.339-1.035 1.96 1.96 0 0 0-.666-.712c-.28-.177-.64-.267-1.084-.267-.366 0-.687.086-.961.254a2.095 2.095 0 0 0-.687.681 3.135 3.135 0 0 0-.406 1.006 5.57 5.57 0 0 0-.13 1.221c0 .508.037.964.11 1.365.071.403.192.747.36 1.036.169.287.393.508.672.66.282.155.631.23 1.057.23.414 0 .761-.089 1.041-.265.28-.178.5-.413.664-.705a3.34 3.34 0 0 0 .355-1.02c.072-.388.108-.793.108-1.214m2.299-.044c0 .823-.09 1.557-.268 2.2-.18.64-.457 1.187-.831 1.637-.376.451-.849.793-1.417 1.029-.568.234-1.243.351-2.024.351-1.495 0-2.604-.45-3.332-1.352-.727-.9-1.091-2.173-1.091-3.82 0-.805.103-1.532.31-2.178.207-.647.504-1.193.89-1.638a3.874 3.874 0 0 1 1.401-1.028c.55-.239 1.171-.359 1.866-.359.75 0 1.409.12 1.973.359.563.24 1.03.582 1.401 1.028.372.445.652.986.839 1.623.187.638.283 1.353.283 2.148M118.45 35.824c.02-.335.092-.58.217-.733.126-.153.36-.23.709-.23h5.19c.347 0 .587.08.722.237.134.158.202.4.202.726v8.837c0 .105-.016.175-.05.209-.035.032-.119.05-.254.05h-1.604c-.106 0-.181-.018-.223-.05-.044-.034-.066-.104-.066-.209v-7.904h-2.819l-.057 1.007a137.093 137.093 0 0 1-.232 2.83c-.078.825-.217 1.54-.419 2.15-.202.607-.504 1.115-.904 1.522-.4.408-.956.725-1.669.955a.46.46 0 0 1-.268.03c-.072-.02-.132-.087-.18-.201l-.492-1.079a.378.378 0 0 1-.03-.244c.02-.076.082-.138.189-.187a2.91 2.91 0 0 0 .903-.646c.226-.25.405-.58.534-.992.132-.411.228-.931.29-1.559.063-.627.123-1.406.182-2.335l.13-2.184zM133.883 39.905c0-.43-.031-.842-.094-1.235a3.21 3.21 0 0 0-.34-1.035 1.96 1.96 0 0 0-.665-.712c-.28-.177-.64-.267-1.085-.267-.366 0-.686.086-.96.254a2.095 2.095 0 0 0-.687.681 3.135 3.135 0 0 0-.406 1.006 5.57 5.57 0 0 0-.13 1.221c0 .508.037.964.11 1.365.071.403.192.747.36 1.036.168.287.393.508.672.66.281.155.631.23 1.056.23.415 0 .762-.089 1.042-.265.279-.178.5-.413.664-.705a3.34 3.34 0 0 0 .354-1.02c.073-.388.109-.793.109-1.214m2.298-.044c0 .823-.09 1.557-.267 2.2-.18.64-.457 1.187-.831 1.637-.377.451-.85.793-1.417 1.029-.569.234-1.243.351-2.024.351-1.494 0-2.604-.45-3.332-1.352-.728-.9-1.092-2.173-1.092-3.82 0-.805.104-1.532.312-2.178.206-.647.502-1.193.888-1.638a3.874 3.874 0 0 1 1.402-1.028c.55-.239 1.171-.359 1.865-.359.751 0 1.41.12 1.973.359.563.24 1.031.582 1.402 1.028.372.445.652.986.84 1.623.186.638.281 1.353.281 2.148M140.258 44.618c0 .134-.019.217-.057.252-.04.033-.132.05-.276.05h-1.532c-.117 0-.2-.022-.253-.065-.052-.043-.08-.122-.08-.237v-7.113c0-.345.047-.675.14-.992.09-.315.239-.598.446-.848.208-.248.48-.447.817-.596.337-.147.756-.222 1.257-.222h4.163c.126 0 .206.024.24.072.033.048.05.139.05.273v1.221c0 .125-.02.208-.057.252-.04.043-.117.064-.233.064h-3.685c-.376 0-.627.085-.751.252-.126.168-.189.381-.189.639v6.998zM152.72 38.195l-1.286 2.155-2.444 3.938a3.642 3.642 0 0 1-.231.322.893.893 0 0 1-.218.195.674.674 0 0 1-.266.093 2.748 2.748 0 0 1-.369.022h-.578c-.376 0-.627-.089-.753-.265-.125-.179-.187-.42-.187-.727v-8.81c0-.18.102-.272.303-.272h1.548c.134 0 .217.02.253.058.033.039.049.11.049.215v6.467h.087l1.23-2.012 2.5-4.08a4.86 4.86 0 0 1 .231-.33.87.87 0 0 1 .217-.203.682.682 0 0 1 .26-.092c.098-.014.218-.023.363-.023h.592c.356 0 .602.075.737.223.136.15.202.41.202.784v8.794c0 .182-.1.273-.302.273h-1.548c-.135 0-.22-.02-.26-.059-.038-.037-.058-.11-.058-.214v-6.452h-.072zM161.17 34.487a2.41 2.41 0 0 1-.817-.136 2.975 2.975 0 0 1-.723-.374 4.161 4.161 0 0 1-.622-.53 5.507 5.507 0 0 1-.514-.626.69.69 0 0 1-.056-.122c-.02-.053.013-.118.1-.194l.566-.545c.095-.077.16-.105.194-.08.035.023.089.064.166.123.31.305.615.545.918.717.303.173.595.26.875.26.115 0 .233-.013.354-.036a1.7 1.7 0 0 0 .398-.144 3.21 3.21 0 0 0 .477-.302c.173-.13.374-.303.606-.525.097-.077.164-.114.203-.108.037.005.081.03.13.079l.55.475c.096.086.136.153.122.202a.413.413 0 0 1-.065.128c-.877 1.16-1.83 1.738-2.863 1.738zm2.125 3.708l-1.286 2.155-2.444 3.937a3.394 3.394 0 0 1-.231.324.924.924 0 0 1-.218.194.654.654 0 0 1-.267.093c-.1.014-.223.022-.368.022h-.579c-.374 0-.626-.09-.752-.266-.125-.178-.188-.42-.188-.726V35.12c0-.184.103-.273.303-.273h1.55c.133 0 .217.018.252.055.033.04.049.11.049.218v6.465h.087l1.23-2.011 2.5-4.081a4.11 4.11 0 0 1 .231-.33.851.851 0 0 1 .218-.202.677.677 0 0 1 .26-.093c.097-.014.216-.021.36-.021h.595c.356 0 .6.074.736.221.135.15.202.41.202.783v8.795c0 .182-.102.273-.302.273h-1.548c-.135 0-.22-.02-.26-.059-.038-.038-.058-.11-.058-.214v-6.452h-.072zM70.035 10.216c-.329 0-.558-.078-.694-.237-.136-.158-.202-.398-.202-.725V.417c0-.181.101-.273.303-.273h1.62c.133 0 .218.019.253.056.033.04.051.113.051.217v7.905h2.933V.417c0-.181.102-.273.305-.273h1.576c.133 0 .22.019.26.056.038.04.058.113.058.217v7.905h2.905V.417c0-.104.016-.177.05-.217.034-.037.118-.056.254-.056h1.604c.193 0 .29.092.29.273v8.837c0 .327-.067.567-.203.725-.135.159-.366.237-.694.237H70.035zM89.638 4.857c.25.086.458.184.622.293.163.112.298.238.406.382.104.143.188.305.252.482.062.177.121.371.18.581l.896 3.334c.02.048.022.109.007.18-.014.072-.084.108-.208.108h-1.677a.516.516 0 0 1-.16-.029c-.058-.02-.1-.077-.129-.172l-.883-3.09a2.54 2.54 0 0 0-.268-.61c-.1-.159-.224-.28-.368-.367a1.447 1.447 0 0 0-.506-.18 3.898 3.898 0 0 0-.665-.05h-1.185l.014 4.269c0 .104-.02.169-.058.193a.419.419 0 0 1-.203.036h-1.677a.428.428 0 0 1-.195-.036c-.043-.024-.064-.09-.064-.193v-9.6c0-.105.02-.17.064-.194a.428.428 0 0 1 .195-.036h1.693c.096 0 .164.012.201.036.039.024.048.089.03.194v3.664h1.156c.144 0 .297-.012.455-.036.159-.023.316-.079.47-.165a1.37 1.37 0 0 0 .427-.388c.13-.173.233-.408.31-.704L89.423.33c.018-.097.06-.154.122-.173a.569.569 0 0 1 .167-.029h1.619c.124 0 .194.036.21.108a.318.318 0 0 1-.009.179l-.664 2.572c-.193.825-.602 1.422-1.229 1.797v.072zM99.603 5.201c0-.43-.03-.84-.094-1.234a3.177 3.177 0 0 0-.339-1.036 1.928 1.928 0 0 0-.666-.71c-.28-.18-.64-.267-1.083-.267-.367 0-.688.084-.962.252a2.116 2.116 0 0 0-.687.682 3.2 3.2 0 0 0-.406 1.006 5.57 5.57 0 0 0-.13 1.22c0 .509.037.965.11 1.366.072.402.192.748.36 1.035.17.288.393.508.673.66.28.155.632.23 1.056.23.414 0 .762-.088 1.042-.265.278-.177.5-.412.663-.704.165-.292.284-.633.356-1.02a6.58 6.58 0 0 0 .107-1.215m2.3-.042c0 .822-.09 1.556-.27 2.197-.177.643-.456 1.19-.83 1.64-.375.45-.848.793-1.417 1.029-.568.233-1.243.35-2.023.35-1.495 0-2.605-.45-3.332-1.352-.728-.9-1.092-2.174-1.092-3.822 0-.803.103-1.53.31-2.177.208-.646.504-1.192.89-1.638A3.864 3.864 0 0 1 95.541.36c.549-.24 1.172-.36 1.866-.36.751 0 1.409.12 1.972.36.564.239 1.033.582 1.403 1.027.37.446.651.987.838 1.624.188.638.283 1.353.283 2.149M104.54 1.12c.018-.334.09-.579.216-.732.126-.153.361-.23.709-.23h5.19c.347 0 .587.08.722.237.135.158.202.4.202.726v8.836c0 .106-.016.176-.05.209s-.119.05-.254.05h-1.604c-.106 0-.181-.017-.223-.05-.044-.033-.066-.103-.066-.209V2.054h-2.819l-.057 1.006a137.092 137.092 0 0 1-.231 2.83c-.079.825-.218 1.54-.42 2.15a3.879 3.879 0 0 1-.904 1.523c-.4.407-.956.725-1.669.955a.46.46 0 0 1-.268.03c-.072-.02-.132-.087-.18-.201l-.491-1.08a.359.359 0 0 1-.03-.243c.02-.076.081-.139.188-.188.376-.18.677-.396.904-.646.225-.25.404-.578.534-.993.13-.41.227-.93.29-1.557.062-.629.122-1.406.181-2.335l.13-2.184zM116.291 6.351h2.27l-.55-1.832-.534-2.061h-.087l-.549 2.061-.55 1.832zm2.79 1.768h-3.31l-.564 1.825a.418.418 0 0 1-.123.209c-.053.043-.147.063-.282.063h-1.691c-.107 0-.172-.028-.196-.086a.318.318 0 0 1-.008-.2l3.008-9.01c.048-.163.104-.294.167-.396a.81.81 0 0 1 .217-.238.82.82 0 0 1 .288-.122c.11-.024.239-.035.383-.035h.867c.165 0 .305.006.42.022a.68.68 0 0 1 .304.107.76.76 0 0 1 .224.246c.062.104.123.243.18.416l3.008 9.01a.314.314 0 0 1 0 .186c-.02.068-.082.1-.189.1h-1.72a.875.875 0 0 1-.267-.035c-.072-.024-.124-.09-.152-.194l-.564-1.868zM94.38 57.68c0 .223-.047.39-.14.499-.093.109-.251.163-.477.163h-7.336c-.226 0-.384-.054-.476-.163-.094-.109-.14-.276-.14-.499v-6.076c0-.125.07-.188.209-.188h1.114c.091 0 .15.013.173.04.023.027.035.075.035.148v5.434h2.018v-5.434c0-.125.07-.188.21-.188h1.082c.092 0 .153.013.18.04.025.027.038.075.038.148v5.434h1.998v-5.434c0-.073.012-.12.035-.149.024-.026.081-.04.174-.04h1.104c.132 0 .198.064.198.19v6.075zm-10.066-1.536c-.126.459-.317.85-.572 1.175-.256.327-.58.578-.973.758-.395.176-.86.265-1.397.265-.392 0-.788-.038-1.189-.114-.4-.076-.78-.22-1.138-.44-.06-.032-.095-.072-.108-.118-.015-.046.001-.116.049-.206l.338-.712c.033-.071.07-.12.11-.144.04-.023.105-.014.198.025.22.08.454.157.706.233.252.075.537.112.855.112.285 0 .526-.04.726-.123.199-.082.365-.198.502-.346.135-.147.238-.329.313-.543.072-.214.122-.453.148-.716h-2.336c-.072 0-.121-.011-.148-.035-.028-.023-.041-.07-.041-.143v-.84c0-.08.013-.13.04-.158.028-.027.077-.04.149-.04h2.317c-.053-.474-.214-.838-.483-1.092-.268-.251-.63-.38-1.088-.38-.251 0-.484.02-.695.065a4.9 4.9 0 0 0-.677.192c-.093.034-.16.039-.199.02-.04-.02-.076-.075-.11-.168l-.267-.68c-.046-.113-.065-.19-.055-.228.01-.04.055-.08.133-.119.313-.158.64-.27.986-.332a5.772 5.772 0 0 1 1.023-.094c.98 0 1.739.292 2.271.875.534.584.801 1.425.801 2.524 0 .56-.063 1.069-.19 1.527zm-6.556 2c0 .093-.016.148-.051.169a.38.38 0 0 1-.18.029h-.99a.358.358 0 0 1-.166-.03c-.037-.02-.055-.075-.055-.168V54.36h-.06l-.407.918-.826 1.819c-.072.172-.147.288-.222.346-.078.06-.192.09-.345.09h-.546c-.166 0-.28-.03-.342-.09-.063-.058-.135-.174-.215-.346l-.616-1.284-.615-1.334h-.06v3.665c0 .093-.017.148-.05.169a.383.383 0 0 1-.18.029H70.82a.385.385 0 0 1-.168-.03c-.04-.02-.06-.075-.06-.168V52.11c0-.252.047-.429.145-.535.095-.105.26-.158.491-.158h.578c.186 0 .324.034.412.105.09.068.176.19.254.36l1.087 2.41.616 1.403h.04l.677-1.542 1.014-2.253c.08-.176.168-.301.264-.374.097-.073.251-.11.463-.11h.488c.212 0 .372.046.478.135.107.089.16.258.16.508v6.086zm-8.638 1.651h26.73v-9.892H69.12v9.892z"/></g></svg>