<svg width="131" height="47" xmlns="http://www.w3.org/2000/svg" xmlns:xlink="http://www.w3.org/1999/xlink"><defs><path id="a" d="M.414.783h9.278V11.22H.414z"/><path id="c" d="M.831.421h26.71v9.919H.83z"/><path id="e" d="M0 .227h40.97V46.06H0z"/><path id="g" d="M0 46.773h130.325V.94H0z"/></defs><g fill="none" fill-rule="evenodd"><path d="M57.52 12.248c.087-.298.172-.689.253-1.175.08-.486.165-1.084.252-1.795.087-.712.189-1.582.305-2.61h2.674v6.315H57.23c.107-.192.202-.437.29-.735m-1.895 4.686c.029-.345.06-.69.087-1.037.029-.347.054-.693.073-1.04h6.52l.072 2.077c0 .203.092.304.274.304h1.245c.095 0 .16-.024.196-.073a.463.463 0 0 0 .064-.216l.188-3.374a.579.579 0 0 0-.093-.382c-.074-.102-.22-.162-.441-.182l-.609-.042V5.73c0-.326-.065-.568-.194-.727-.13-.16-.385-.237-.758-.237h-4.758c-.231 0-.42.033-.565.1a.824.824 0 0 0-.338.28c-.082.122-.14.268-.175.441a10.39 10.39 0 0 0-.093.577l-.507 3.993c-.028.252-.065.502-.108.752-.043.249-.1.496-.173.74-.073.247-.172.48-.297.7a2.847 2.847 0 0 1-.477.621l-.52.042c-.222.048-.367.134-.433.254a.924.924 0 0 0-.103.468l.159 3.216c.02.193.11.289.275.289h1.171c.203 0 .308-.101.318-.304M66.223 14.858h1.532c.144 0 .24-.018.282-.058.045-.038.066-.12.066-.245v-4.038h3.919v4.038c0 .115.024.196.071.238.05.043.135.065.26.065h1.519c.145 0 .238-.018.28-.058.045-.038.067-.12.067-.245v-9.49c0-.123-.022-.205-.066-.244-.043-.038-.136-.058-.281-.058h-1.519c-.125 0-.21.022-.26.065-.047.044-.071.122-.071.238v3.592h-3.919V5.066c0-.124-.02-.206-.066-.245-.042-.038-.138-.058-.282-.058h-1.532c-.115 0-.2.022-.253.065-.053.044-.079.122-.079.238v9.49c0 .114.026.195.08.237.051.043.137.065.252.065M77.005 14.022c.203.25.475.45.817.606.342.154.783.231 1.323.231h4.28c.117 0 .194-.027.233-.08.037-.053.056-.137.056-.253v-1.225c0-.144-.015-.238-.05-.281-.035-.044-.114-.065-.24-.065h-3.816c-.307 0-.541-.06-.701-.18-.158-.121-.239-.348-.239-.686v-1.644h4.149c.116 0 .191-.025.225-.079a.483.483 0 0 0 .05-.253V8.99c0-.134-.016-.226-.05-.275-.034-.047-.11-.072-.225-.072h-4.149v-1.11c0-.25.063-.462.188-.635.126-.172.376-.258.752-.258h3.673c.105 0 .179-.023.218-.065.038-.044.056-.128.056-.253V5.095c0-.134-.015-.225-.05-.274-.035-.048-.108-.072-.224-.072h-4.15c-.492 0-.907.074-1.244.224a2.167 2.167 0 0 0-.816.598c-.207.25-.36.534-.456.85a3.416 3.416 0 0 0-.144.997v4.787c0 .326.038.648.116.966.076.318.215.6.418.85M91.365 12.075a1.095 1.095 0 0 1-.658.727c-.182.083-.41.123-.68.123h-2.081v-2.58h2.082c.462 0 .811.12 1.047.36.237.24.355.554.355.937 0 .136-.02.28-.065.433zm-3.419-5.408h2.038c.309 0 .555.08.738.244.184.163.275.386.275.672 0 .202-.035.365-.101.494a.8.8 0 0 1-.26.3 1.028 1.028 0 0 1-.355.152c-.129.028-.253.04-.369.04h-1.966V6.667zm5.487 6.374c.178-.375.267-.792.267-1.255 0-.24-.03-.485-.086-.735a2.424 2.424 0 0 0-.759-1.29 2.331 2.331 0 0 0-.7-.426v-.101c.326-.182.594-.45.8-.8.207-.35.311-.728.311-1.132 0-.453-.078-.84-.238-1.16a2.174 2.174 0 0 0-.658-.794 2.8 2.8 0 0 0-.99-.455 5.042 5.042 0 0 0-1.222-.144h-3.542c-.348 0-.578.07-.693.216-.116.145-.174.37-.174.678v8.335c0 .308.058.532.174.67.115.14.345.21.693.21h3.629c.48 0 .933-.074 1.351-.223a3.43 3.43 0 0 0 1.098-.627c.314-.269.56-.592.739-.967zM95.913 14.858h1.532c.143 0 .24-.018.282-.058.043-.038.066-.12.066-.245v-4.038h3.917v4.038c0 .115.025.196.073.238.047.043.135.065.26.065h1.518c.145 0 .24-.018.282-.058.044-.038.065-.12.065-.245v-9.49c0-.123-.021-.205-.065-.244-.043-.038-.137-.058-.282-.058h-1.518c-.125 0-.213.022-.26.065-.048.044-.073.122-.073.238v3.592h-3.917V5.066c0-.124-.023-.206-.066-.245-.042-.038-.139-.058-.282-.058h-1.532c-.116 0-.2.022-.254.065-.053.044-.08.122-.08.238v9.49c0 .114.027.195.08.237.054.043.138.065.254.065M107.017 14.858h.578c.145 0 .267-.008.369-.022.1-.014.19-.045.266-.094a.889.889 0 0 0 .217-.194c.068-.081.145-.19.231-.325l2.444-3.95 1.287-2.163h.072v6.474c0 .106.02.178.059.216.038.04.125.058.26.058h1.546c.203 0 .304-.091.304-.274V5.76c0-.375-.066-.638-.202-.786-.136-.149-.38-.224-.737-.224h-.594c-.144 0-.265.007-.36.022a.678.678 0 0 0-.262.094.86.86 0 0 0-.216.2 4.428 4.428 0 0 0-.231.333l-2.502 4.095-1.229 2.02h-.087v-6.49c0-.106-.015-.177-.05-.216-.033-.038-.118-.058-.253-.058h-1.547c-.202 0-.304.091-.304.274v8.84c0 .308.063.55.189.729.125.178.375.266.752.266M121.728 10.943c.1.158.19.363.267.613l.883 3.1c.028.096.071.154.13.174a.518.518 0 0 0 .158.028h1.678c.125 0 .195-.037.21-.107a.323.323 0 0 0-.008-.18l-.897-3.347a8.584 8.584 0 0 0-.18-.584 1.74 1.74 0 0 0-.254-.483 1.575 1.575 0 0 0-.405-.383 2.742 2.742 0 0 0-.62-.296v-.071c.627-.375 1.036-.976 1.228-1.803l.665-2.581a.308.308 0 0 0 .007-.18c-.013-.072-.084-.108-.21-.108h-1.617a.59.59 0 0 0-.168.028c-.062.02-.103.077-.124.173l-.649 2.438c-.076.299-.18.534-.31.706a1.41 1.41 0 0 1-.428.39 1.372 1.372 0 0 1-.47.166c-.158.024-.31.036-.455.036H119V4.995c.021-.107.012-.17-.027-.195a.404.404 0 0 0-.203-.037h-1.691a.408.408 0 0 0-.195.037c-.044.024-.066.088-.066.195v9.633c0 .106.022.17.066.193.042.026.109.037.195.037h1.677c.095 0 .163-.011.203-.037.039-.022.056-.087.056-.193l-.015-4.284h1.187c.25 0 .472.017.665.05.193.035.361.095.506.18.145.088.269.21.369.369M61.062 32.213c.037.039.126.058.26.058h1.548c.202 0 .303-.092.303-.274V23.17c0-.375-.068-.636-.203-.786-.135-.148-.38-.222-.737-.222h-.594c-.143 0-.264.006-.36.02a.7.7 0 0 0-.262.094.878.878 0 0 0-.215.202 4.24 4.24 0 0 0-.232.332l-2.502 4.096-1.227 2.018h-.087v-6.489c0-.105-.017-.178-.052-.217-.032-.039-.116-.056-.254-.056h-1.544c-.203 0-.305.09-.305.273v8.84c0 .307.063.55.189.728.125.179.375.267.75.267h.58c.143 0 .266-.006.368-.022a.657.657 0 0 0 .268-.094.875.875 0 0 0 .215-.194c.068-.08.145-.19.232-.323l2.444-3.952 1.286-2.164h.073v6.475c0 .105.02.178.058.216M80.938 28.638a8.228 8.228 0 0 0-.182-.584 1.956 1.956 0 0 0-.252-.485 1.614 1.614 0 0 0-.407-.38c-.163-.112-.37-.21-.622-.297v-.072c.627-.375 1.038-.976 1.232-1.803l.648-2.582a.294.294 0 0 0 .008-.178c-.015-.073-.085-.11-.21-.11H79.52a.567.567 0 0 0-.167.03c-.06.018-.102.077-.122.173l-.65 2.436c-.079.3-.176.534-.296.706-.121.175-.252.304-.39.39-.14.086-.288.143-.442.167a2.988 2.988 0 0 1-.45.035h-1.025v-3.676c0-.106-.02-.172-.065-.195a.423.423 0 0 0-.196-.036H74.04a.417.417 0 0 0-.203.036c-.038.023-.048.089-.028.195v3.676h-1.042c-.144 0-.293-.012-.45-.035-.153-.024-.3-.081-.438-.167a1.327 1.327 0 0 1-.391-.39 2.189 2.189 0 0 1-.297-.706l-.65-2.436c-.02-.096-.06-.155-.123-.173a.562.562 0 0 0-.167-.03h-1.62c-.123 0-.194.037-.208.11a.317.317 0 0 0 .007.178l.666 2.582c.095.404.237.763.426 1.074.188.314.45.557.788.729v.072c-.251.086-.46.188-.622.303a1.692 1.692 0 0 0-.405.397c-.106.15-.19.311-.254.49-.061.178-.122.364-.18.556l-.896 3.345a.3.3 0 0 0-.007.18c.014.072.085.108.21.108h1.72c.047 0 .1-.01.16-.029.056-.02.1-.077.128-.173l.84-3.1c.067-.25.15-.455.246-.613.095-.16.213-.281.355-.368.139-.086.303-.148.489-.181a3.98 3.98 0 0 1 .657-.05h1.058v4.282c0 .107.019.172.057.196.039.024.106.036.203.036h1.647a.411.411 0 0 0 .196-.036c.045-.024.065-.09.065-.196v-4.281h1.055c.253 0 .47.017.659.049.188.033.349.095.483.181.136.087.25.209.341.368.09.158.175.363.252.612l.84 3.1c.027.097.07.155.13.174a.514.514 0 0 0 .16.029h1.732c.127 0 .196-.036.21-.107a.293.293 0 0 0-.007-.181l-.894-3.345zM90.721 22.133h-1.748c-.157 0-.258.02-.306.058-.047.039-.095.12-.144.245l-.911 2.798-.764 2.495h-.103l-.809-2.38-1.071-2.927c-.038-.115-.086-.192-.144-.23-.058-.04-.168-.06-.332-.06H82.71a.289.289 0 0 0-.202.067c-.049.042-.049.112 0 .208l2.544 6.317c.108.259.21.427.311.504.102.077.269.116.5.116h.376l-.233.648c-.057.164-.12.292-.187.383a.744.744 0 0 1-.247.216.861.861 0 0 1-.325.1 4.272 4.272 0 0 1-.794.007 7.671 7.671 0 0 1-.427-.042.654.654 0 0 0-.231-.014c-.047.01-.083.066-.1.173l-.232 1.196c-.02.107-.013.175.02.21.034.035.114.07.24.109.25.076.496.128.737.158.24.028.46.044.651.044.374 0 .708-.036.996-.103.29-.067.55-.173.774-.325.228-.148.425-.347.594-.597a4.45 4.45 0 0 0 .455-.924l2.964-8.206c.068-.162.009-.244-.174-.244M97.23 26.437c-.23.265-.591.397-1.082.397h-1.895v-2.74h1.88c.289 0 .528.047.716.137.187.092.336.207.448.347.11.139.186.288.225.446.038.158.056.306.056.441 0 .384-.116.709-.347.972m1.714-3.381a3.17 3.17 0 0 0-1.07-.656 3.96 3.96 0 0 0-1.41-.239h-3.541c-.347 0-.58.08-.695.239-.116.159-.173.374-.173.643v8.926c0 .114.026.194.079.238.053.043.136.064.252.064h1.52c.144 0 .238-.017.28-.05.044-.034.066-.118.066-.252v-3.36h1.924c.809 0 1.458-.125 1.943-.376.487-.249.858-.55 1.114-.902a2.83 2.83 0 0 0 .499-1.08c.076-.37.115-.68.115-.93 0-.463-.077-.886-.231-1.27a2.8 2.8 0 0 0-.672-.995M109.348 22.177h-1.52c-.124 0-.211.02-.26.064-.048.044-.07.123-.07.238v3.591h-3.919V22.48c0-.125-.022-.206-.067-.245-.042-.038-.136-.057-.28-.057h-1.533c-.116 0-.2.02-.253.064-.053.044-.08.123-.08.238v9.49c0 .115.027.193.08.238.053.043.137.064.253.064h1.533c.144 0 .238-.02.28-.058.045-.037.067-.12.067-.244V27.93h3.918v4.038c0 .115.023.193.072.238.048.043.135.064.26.064h1.52c.143 0 .237-.02.28-.058.044-.037.065-.12.065-.244v-9.49c0-.125-.02-.206-.065-.245-.043-.038-.137-.057-.28-.057M114.364 28.392l.55-1.838.549-2.07h.088l.534 2.07.55 1.838h-2.271zm2.494-5.869a.77.77 0 0 0-.224-.246.684.684 0 0 0-.304-.106 3.13 3.13 0 0 0-.418-.024h-.868c-.145 0-.272.012-.383.037a.784.784 0 0 0-.288.122.822.822 0 0 0-.218.238 1.602 1.602 0 0 0-.166.397l-3.008 9.041a.316.316 0 0 0 .007.202c.024.059.09.086.195.086h1.692c.135 0 .229-.02.283-.063a.437.437 0 0 0 .122-.21l.563-1.83h3.31l.566 1.875c.028.104.08.169.153.193a.86.86 0 0 0 .266.035h1.72c.107 0 .17-.033.188-.1a.292.292 0 0 0 0-.188l-3.007-9.041a2.219 2.219 0 0 0-.181-.418z" fill="#FEFEFE"/><g transform="translate(120.633 21.393)"><mask id="b" fill="#fff"><use xlink:href="#a"/></mask><path d="M9.49 1.022C9.354.863 9.112.783 8.766.783h-5.19c-.348 0-.585.077-.71.232-.125.154-.196.399-.216.734L2.52 3.94a64.829 64.829 0 0 1-.18 2.344c-.061.63-.16 1.15-.29 1.565-.129.413-.309.746-.535.995-.225.25-.527.465-.903.65-.106.046-.168.11-.187.187a.358.358 0 0 0 .028.245l.492 1.082c.047.114.11.181.18.202.073.018.162.01.268-.03.712-.23 1.271-.55 1.67-.96.398-.407.702-.917.904-1.528.201-.609.34-1.329.418-2.156.077-.826.155-1.774.232-2.84l.06-1.01h2.818v7.932c0 .105.02.175.064.21.043.033.118.049.224.049h1.605c.135 0 .22-.016.254-.05.033-.034.05-.104.05-.209V1.75c0-.326-.067-.568-.203-.727" fill="#FEFEFE" mask="url(#b)"/></g><g transform="translate(53.72 36.433)"><mask id="d" fill="#fff"><use xlink:href="#c"/></mask><path d="M2.301 2.633c0-.252.048-.43.143-.534.097-.106.262-.159.494-.159h.575c.186 0 .325.035.414.104.089.07.173.19.253.362l1.084 2.416.618 1.407h.04l.676-1.545 1.014-2.26c.08-.177.167-.303.262-.375.097-.073.252-.109.463-.109h.489c.21 0 .37.044.477.134.106.088.159.26.159.51v6.1c0 .094-.018.15-.05.17-.033.02-.094.03-.18.03h-.99a.35.35 0 0 1-.165-.03c-.037-.02-.057-.076-.057-.17V4.893h-.057l-.409.921-.824 1.823c-.074.172-.147.287-.224.346-.076.06-.189.09-.342.09H5.62c-.166 0-.28-.03-.344-.09-.063-.059-.134-.174-.213-.346l-.617-1.288-.614-1.337h-.06v3.674c0 .093-.016.15-.05.169-.033.02-.094.03-.18.03H2.528a.376.376 0 0 1-.167-.03c-.04-.02-.059-.076-.059-.17V2.634zm8.387 5.37l.338-.713c.034-.073.07-.121.11-.144.04-.023.105-.015.2.024.216.08.451.157.705.234.251.075.535.113.852.113.287 0 .528-.041.727-.125.198-.082.364-.197.501-.346.136-.148.24-.329.312-.544a3.19 3.19 0 0 0 .15-.719H12.25c-.074 0-.124-.011-.151-.035-.026-.023-.039-.07-.039-.143v-.842c0-.079.013-.132.039-.159.027-.025.077-.04.15-.04h2.314c-.053-.474-.214-.84-.483-1.093-.267-.254-.63-.383-1.086-.383-.253 0-.484.023-.697.066a4.88 4.88 0 0 0-.674.192c-.092.033-.16.04-.199.02-.038-.02-.075-.075-.11-.168l-.268-.684c-.047-.112-.063-.187-.054-.228.01-.04.054-.079.134-.118.311-.16.64-.27.983-.332a5.69 5.69 0 0 1 1.024-.095c.979 0 1.736.292 2.268.876.535.585.801 1.43.801 2.532 0 .56-.062 1.071-.188 1.532-.128.458-.317.85-.573 1.177a2.54 2.54 0 0 1-.974.76c-.394.177-.858.265-1.395.265-.39 0-.785-.038-1.185-.113a3.39 3.39 0 0 1-1.138-.44c-.06-.034-.097-.075-.11-.119-.014-.046.004-.116.05-.208zm6.822-5.876c0-.125.07-.187.207-.187h1.113c.093 0 .15.013.174.039.024.027.035.077.035.148v5.45h2.015v-5.45c0-.125.07-.187.21-.187h1.082c.093 0 .153.013.18.039.025.027.04.077.04.148v5.45h1.994v-5.45c0-.071.012-.12.036-.148.023-.026.08-.039.174-.039h1.102c.132 0 .2.062.2.187V8.22c0 .225-.047.392-.14.5-.093.11-.252.163-.477.163h-7.331c-.223 0-.383-.053-.477-.163-.091-.108-.137-.275-.137-.5V2.127zM.83 10.34h26.71V.421H.83v9.92z" fill="#FEFEFE" mask="url(#d)"/></g><g transform="translate(0 .713)"><mask id="f" fill="#fff"><use xlink:href="#e"/></mask><path d="M6.309 6.519v30.098h-3.15V3.378h28.342v3.14H6.31zM34.66.227H.001v39.54h6.308v6.293h10.563v-.203c0-1 .071-1.982.194-2.948H9.47V9.671h28.34v12.94a23.935 23.935 0 0 1 2.504-.134h.656V6.52H34.66V.227z" fill="#FEFEFE" mask="url(#f)"/></g><mask id="h" fill="#fff"><use xlink:href="#g"/></mask><path fill="#FEFEFE" mask="url(#h)" d="M12.547 18.566H34.66v-3.153H12.547zM12.547 38.608h5.722c.397-1.09.87-2.144 1.418-3.153h-7.14v3.153zM12.547 28.586h12.79a23.513 23.513 0 0 1 4.948-3.152H12.547v3.152zM26.532 46.76h3.166c.039-6.135 5.05-11.114 11.21-11.114v-3.158c-7.905 0-14.338 6.396-14.376 14.271"/><path d="M40.908 38.87a7.992 7.992 0 0 0-7.622 5.595 7.95 7.95 0 0 0-.354 2.294h3.166a4.766 4.766 0 0 1 .82-2.613 4.816 4.816 0 0 1 3.99-2.12V38.87zM32.992 27.68l-.03.005c-.142.06-.275.129-.414.19-.289.127-.578.254-.862.394-.175.088-.346.185-.519.276-.272.144-.543.289-.806.444-.178.105-.35.219-.525.329-.248.157-.498.313-.74.48-.18.125-.355.26-.53.39-.225.166-.452.33-.67.506-.182.146-.357.303-.535.455-.2.172-.4.341-.593.521-.186.17-.358.35-.539.527-.172.174-.351.346-.519.526-.183.196-.354.399-.528.6-.151.176-.306.348-.452.528-.176.22-.342.447-.513.672-.127.175-.262.346-.385.524-.168.243-.325.494-.485.746-.11.17-.222.34-.325.515-.158.266-.303.54-.45.812-.09.17-.185.338-.273.511-.14.285-.27.576-.4.867-.058.137-.127.268-.186.406l-.005.03a20.573 20.573 0 0 0-1.575 7.825H23.3c.039-9.653 7.92-17.495 17.607-17.495v-3.157c-2.802 0-5.473.564-7.915 1.572" fill="#FEFEFE" mask="url(#h)"/></g></svg>